<?xml version="1.0" encoding="UTF-8" standalone="no"?>
<svg width="170px" height="58px" viewBox="0 0 170 58" version="1.1" xmlns="http://www.w3.org/2000/svg" xmlns:xlink="http://www.w3.org/1999/xlink">
    <!-- Generator: Sketch 3.6.1 (26313) - http://www.bohemiancoding.com/sketch -->
    <title>Amazon</title>
    <desc>Created with Sketch.</desc>
    <defs>
        <linearGradient x1="50%" y1="0%" x2="50%" y2="100%" id="linearGradient-1">
            <stop stop-color="#F4A100" offset="0%"></stop>
            <stop stop-color="#D06E00" offset="100%"></stop>
        </linearGradient>
    </defs>
    <g id="following" stroke="none" stroke-width="1" fill="none" fill-rule="evenodd">
        <g id="[1-2]following" transform="translate(-993.000000, -1913.000000)">
            <g id="Footer" transform="translate(0.000000, 1844.000000)">
                <g id="Amazon" transform="translate(993.000000, 69.000000)">
                    <rect id="Rectangle-30-Copy" fill="#000000" x="0" y="0" width="170" height="58" rx="6"></rect>
                    <g id="logo" transform="translate(18.000000, 9.000000)">
                        <path d="M40.3445989,35.2125944 C40.3445989,38.0133465 38.0847684,40.2825413 35.2972655,40.2825413 L5.51065537,40.2825413 C2.72315254,40.2825413 0.463322034,38.0133465 0.463322034,35.2125944 L0.463322034,5.29253172 C0.463322034,2.49254008 2.72315254,0.222584886 5.51065537,0.222584886 L35.2972655,0.222584886 C38.0847684,0.222584886 40.3445989,2.49254008 40.3445989,5.29253172 L40.3445989,35.2125944 Z" id="Fill-4" fill="#FFFFFF"></path>
                        <path d="M40.422652,35.2913014 C40.422652,38.0912931 38.1628215,40.3612483 35.3745616,40.3612483 L5.58870847,40.3612483 C2.80120565,40.3612483 0.541375141,38.0912931 0.541375141,35.2913014 L0.541375141,13.2890858 C0.541375141,13.2890858 9.03182712,14.7757734 20.4823921,14.691363 C31.2334316,14.6122757 40.422652,13.2890858 40.422652,13.2890858 L40.422652,35.2913014 Z" id="Fill-6" fill="url(#linearGradient-1)"></path>
                        <path d="M23.866687,10.7399679 C22.2390034,11.9772266 19.8784836,12.6357797 17.8465288,12.6357797 C14.997704,12.6357797 12.4327774,11.5506119 10.4916701,9.74529409 C10.3395006,9.60384964 10.4750147,9.40993387 10.6589808,9.5201997 C12.7530147,10.7749488 15.3421672,11.5316005 18.0168678,11.5316005 C19.821704,11.5316005 21.8052068,11.1452899 23.6304836,10.3483341 C23.9052972,10.2281824 24.1362011,10.5346453 23.866687,10.7399679" id="Fill-8" fill="#000000"></path>
                        <path d="M24.5438791,9.9434684 C24.335687,9.6689445 23.1675401,9.81343076 22.642896,9.87806935 C22.483913,9.8970807 22.459687,9.75411535 22.6027718,9.65069361 C23.5339582,8.97693136 25.0617096,9.17160759 25.2388621,9.39670197 C25.4175288,9.62483817 25.1919243,11.2012593 24.3182746,11.9541088 C24.1842746,12.0696978 24.0563311,12.008101 24.116139,11.8552498 C24.3122181,11.3495478 24.7520712,10.2179923 24.5438791,9.9434684" id="Fill-10" fill="#000000"></path>
                        <path d="M22.6020904,4.88835042 L22.6020904,4.23359952 C22.6028475,4.13398005 22.6755254,4.0670601 22.7633446,4.0670601 L25.6136836,4.0670601 C25.7045311,4.0670601 25.7779661,4.13550096 25.7779661,4.23283907 L25.7779661,4.79481458 C25.777209,4.88911087 25.6999887,5.01154397 25.5637175,5.20698065 L24.0866893,7.37807682 C24.6348023,7.3651491 25.2147119,7.4495595 25.7128588,7.73777157 C25.824904,7.80317061 25.8551864,7.89898781 25.8642712,7.99328411 L25.8642712,8.69290179 C25.8642712,8.788719 25.7613107,8.89974528 25.6538079,8.84195078 C24.7771299,8.36894839 23.6127684,8.31723751 22.6422147,8.84803441 C22.5430395,8.90202664 22.439322,8.79252127 22.439322,8.69594361 L22.439322,8.03130681 C22.439322,7.9256037 22.4415932,7.74309474 22.5453107,7.58187849 L24.2562712,5.05336894 L22.7663729,5.05336894 C22.6755254,5.05336894 22.6028475,4.98644898 22.6020904,4.88835042" id="Fill-12" fill="#000000"></path>
                        <path d="M12.2822734,8.97989713 L11.4154373,8.97989713 C11.3329175,8.97457395 11.266296,8.91069582 11.2602395,8.82856679 L11.2602395,4.24455006 C11.2602395,4.15253513 11.3359458,4.07953154 11.4283073,4.07953154 L12.2353356,4.07953154 C12.3201266,4.08409427 12.3882621,4.14949331 12.3935616,4.23314325 L12.3935616,4.83162055 L12.4094599,4.83162055 C12.6199232,4.25291505 13.0166237,3.98295388 13.5511096,3.98295388 C14.0931661,3.98295388 14.433087,4.25291505 14.676104,4.83162055 C14.8865672,4.25291505 15.3635164,3.98295388 15.8737763,3.98295388 C16.2386802,3.98295388 16.6346237,4.13732605 16.8776407,4.48409307 C17.1532113,4.8704037 17.0964316,5.4293374 17.0964316,5.92211159 L17.0956746,8.81487861 C17.0956746,8.90613309 17.0207254,8.97989713 16.9283638,8.97989713 L16.0622847,8.97989713 C15.9752226,8.9738135 15.9063299,8.90309128 15.9063299,8.81563907 L15.9063299,6.38446762 C15.9063299,6.19207276 15.9222282,5.70994492 15.882104,5.52667551 C15.8177537,5.21793118 15.6231887,5.13123943 15.3726011,5.13123943 C15.1613808,5.13123943 14.9433469,5.27572569 14.8540136,5.5069037 C14.7646802,5.73884217 14.7730079,6.12439235 14.7730079,6.38446762 L14.7730079,8.81487861 C14.7730079,8.90613309 14.6980588,8.97989713 14.6056972,8.97989713 L13.7396181,8.97989713 C13.6525559,8.9738135 13.5836633,8.90309128 13.5836633,8.81563907 L13.5829062,6.38446762 C13.5829062,5.87344253 13.6639119,5.12135352 13.0491774,5.12135352 C12.4261153,5.12135352 12.4495842,5.85443118 12.4495842,6.38446762 L12.4495842,8.81487861 C12.4495842,8.90613309 12.374635,8.97989713 12.2822734,8.97989713" id="Fill-14" fill="#000000"></path>
                        <path d="M28.1621062,4.91884462 C27.5223887,4.91884462 27.4822644,5.81541989 27.4822644,6.37511404 C27.4822644,6.93480818 27.4739367,8.13100233 28.1537785,8.13100233 C28.8252927,8.13100233 28.8578463,7.16674665 28.8578463,6.57815526 C28.8578463,6.19184462 28.841948,5.72872814 28.7283887,5.36218931 C28.6314847,5.04431953 28.4369198,4.91884462 28.1621062,4.91884462 M28.1537785,3.98272575 C29.4407842,3.98272575 30.1372814,5.12112539 30.1372814,6.56826935 C30.1372814,7.96674427 29.3681062,9.07624665 28.1537785,9.07624665 C26.8909989,9.07624665 26.2028294,7.93784701 26.2028294,6.5196003 C26.2028294,5.09222814 26.8993266,3.98272575 28.1537785,3.98272575" id="Fill-16" fill="#000000"></path>
                        <path d="M31.8062249,8.97989713 L30.9424169,8.97989713 C30.8553548,8.9738135 30.7864621,8.90309128 30.7864621,8.81563907 L30.784948,4.22934098 C30.7925186,4.14569104 30.8644395,4.07953154 30.9522588,4.07953154 L31.7562588,4.07953154 C31.831965,4.08333381 31.8940441,4.13656559 31.9106994,4.20804827 L31.9106994,4.90918686 L31.9265977,4.90918686 C32.1696147,4.28181231 32.5095356,3.98295388 33.1083718,3.98295388 C33.4967446,3.98295388 33.8775469,4.12744014 34.1205638,4.52287622 C34.3469254,4.88941505 34.3469254,5.5069037 34.3469254,5.95100884 L34.3469254,8.83541087 C34.3370836,8.91677945 34.2666768,8.97989713 34.1811288,8.97989713 L33.3112644,8.97989713 C33.2310158,8.97457395 33.1666655,8.91373763 33.1568237,8.83541087 L33.1568237,6.34644492 C33.1568237,5.84454528 33.2136034,5.11146762 32.6147672,5.11146762 C32.404304,5.11146762 32.209739,5.25671434 32.112835,5.47800645 C31.9917051,5.75785352 31.9750497,6.0377006 31.9750497,6.34644492 L31.9750497,8.81487861 C31.9735356,8.90613309 31.8985864,8.97989713 31.8062249,8.97989713" id="Fill-18" fill="#000000"></path>
                        <path d="M21.2816983,8.96841428 C21.2241616,9.02164606 21.1416418,9.02468787 21.0765345,8.98894654 C20.7888508,8.74255944 20.7373706,8.62849134 20.5799017,8.39427151 C20.1037096,8.89312933 19.7668169,9.04293877 19.1498113,9.04293877 C18.4200034,9.04293877 17.8522068,8.57906183 17.8522068,7.65130795 C17.8522068,6.92583483 18.2337661,6.43306063 18.7765797,6.19123626 C19.2474723,5.97830914 19.9046023,5.94028644 20.4072915,5.88173148 L20.4072915,5.76538202 C20.4072915,5.55321535 20.4239469,5.30150508 20.3020599,5.11823566 C20.1968282,4.9539776 19.9939356,4.88629719 19.8152689,4.88629719 C19.4844328,4.88629719 19.1906927,5.06044116 19.1187718,5.42241726 C19.1028734,5.50302539 19.0460938,5.5821126 18.9681164,5.58667533 L18.1270203,5.49313949 C18.0558565,5.4764095 17.977122,5.41785454 17.9983198,5.3060678 C18.1906136,4.25588082 19.1119582,3.93877151 19.9371559,3.93877151 C20.3588395,3.93877151 20.9107379,4.05436051 21.2430881,4.3836371 C21.6647718,4.78895908 21.6246475,5.33040233 21.6246475,5.92051464 L21.6246475,7.31214546 C21.6246475,7.73039516 21.7934723,7.91442503 21.9516983,8.14027987 C22.0069638,8.22164845 22.0198339,8.31822611 21.9486701,8.37754152 C21.7715175,8.52963232 21.4573367,8.81176075 21.2839695,8.96993519 L21.2816983,8.96841428 Z M20.4072915,6.79047401 C20.4072915,7.13876195 20.4156192,7.42925538 20.2452802,7.7379997 C20.1074949,7.98970998 19.888704,8.14408214 19.6449299,8.14408214 C19.3125797,8.14408214 19.1180147,7.88324642 19.1180147,7.49617533 C19.1180147,6.73572133 19.7804441,6.5973187 20.4072915,6.5973187 L20.4072915,6.79047401 Z" id="Fill-20" fill="#000000"></path>
                        <path d="M9.99193333,8.96841428 C9.93439661,9.02164606 9.85111977,9.02468787 9.78676949,8.98894654 C9.49908588,8.74255944 9.44684859,8.62849134 9.29013672,8.39427151 C8.81394463,8.89312933 8.47705198,9.04293877 7.86004633,9.04293877 C7.13023842,9.04293877 6.56244181,8.57906183 6.56244181,7.65130795 C6.56244181,6.92583483 6.94324407,6.43306063 7.48681469,6.19123626 C7.95695028,5.97830914 8.61483729,5.94028644 9.11752655,5.88173148 L9.11752655,5.76538202 C9.11752655,5.55321535 9.13342486,5.30150508 9.01229492,5.11823566 C8.90630621,4.9539776 8.70417062,4.88629719 8.52550395,4.88629719 C8.1946678,4.88629719 7.90017062,5.06044116 7.82824972,5.42241726 C7.81310847,5.50302539 7.75632881,5.5821126 7.67759435,5.58667533 L6.83725537,5.49313949 C6.76609153,5.4764095 6.68735706,5.41785454 6.70779774,5.3060678 C6.90084859,4.25588082 7.82143616,3.93877151 8.64739096,3.93877151 C9.06907458,3.93877151 9.62021582,4.05436051 9.95332316,4.3836371 C10.3750068,4.78895908 10.3348825,5.33040233 10.3348825,5.92051464 L10.3348825,7.31214546 C10.3348825,7.73039516 10.5029503,7.91442503 10.6619333,8.14027987 C10.7171989,8.22164845 10.7293119,8.31822611 10.6589051,8.37754152 C10.4817525,8.52963232 10.1668147,8.81176075 9.99344746,8.96993519 L9.99193333,8.96841428 Z M9.11752655,6.79047401 C9.11752655,7.13876195 9.12585424,7.42925538 8.95551525,7.7379997 C8.81772994,7.98970998 8.59818192,8.14408214 8.35516497,8.14408214 C8.02205763,8.14408214 7.82824972,7.88324642 7.82824972,7.49617533 C7.82824972,6.73572133 8.4906791,6.5973187 9.11752655,6.5973187 L9.11752655,6.79047401 Z" id="Fill-22" fill="#000000"></path>
                        <path d="M16.2901605,26.0031923 C16.2901605,29.9142072 13.1339684,33.0853004 9.2411548,33.0853004 C5.34758418,33.0853004 2.19139209,29.9142072 2.19139209,26.0031923 C2.19139209,22.0921774 5.34758418,18.9226051 9.2411548,18.9226051 C13.1339684,18.9226051 16.2901605,22.0921774 16.2901605,26.0031923" id="Fill-24" fill="#0B2472"></path>
                        <path d="M9.63482712,23.299322 L7.94355028,23.299322 L7.94355028,29.5951207 C7.94355028,29.5951207 7.86935819,29.7190747 7.71945989,29.516794 C7.64602486,29.416414 5.65570847,26.4476016 5.65570847,26.4476016 C5.65570847,26.4476016 5.33244294,26.1228878 4.86003616,26.2476022 C4.38687232,26.3723167 4.21274802,26.6970305 4.43683842,27.0970293 C4.66092881,27.4970281 6.17808136,31.1183101 8.14265763,32.1183071 C9.53943729,32.8278107 11.2011887,32.5662145 12.1467593,32.1183071 C12.983313,31.7205897 14.2907593,30.7441667 14.3899345,29.4453113 C14.4898667,28.1456954 14.3876633,26.9966494 14.3876633,26.9966494 L13.5079571,26.9966494 L13.5079571,28.5707892 L12.9424316,28.5707892 L12.9424316,26.2719367 L11.947652,26.2719367 L11.947652,28.1510186 L11.3541153,28.1510186 L11.3541153,25.697794 L10.2351774,25.697794 L10.2351774,28.0263041 L9.69084972,28.0263041 L9.63482712,23.299322 Z" id="Fill-26" fill="#FFFFFF"></path>
                        <path d="M6.37673446,23.2995502 L4.95951412,23.2995502 L4.95951412,24.1740723 L6.37673446,24.1740723 L6.37673446,23.2995502 Z" id="Fill-28" fill="#FFFFFF"></path>
                        <path d="M12.705774,23.2995502 L11.2885537,23.2995502 L11.2885537,24.1740723 L12.705774,24.1740723 L12.705774,23.2995502 Z" id="Fill-30" fill="#FFFFFF"></path>
                        <path d="M9.51021469,20.1520311 L8.04302825,20.1520311 L8.04302825,21.8006953 L9.51021469,21.8006953 L9.51021469,20.1520311 Z" id="Fill-31" fill="#FFFFFF"></path>
                        <path d="M6.77472203,22.5997804 L7.29709492,22.0758276 L6.33032655,21.076591 L5.74587458,21.6013043 L6.77472203,22.5997804 Z" id="Fill-32" fill="#FFFFFF"></path>
                        <path d="M10.9571119,22.4438113 L10.5127164,21.8407713 L11.5574621,20.9981882 L11.9859593,21.6012283 L10.9571119,22.4438113 Z" id="Fill-33" fill="#FFFFFF"></path>
                        <path d="M21.1268034,25.7225087 L21.0109729,25.7225087 C19.892035,25.7225087 19.2265774,25.9894281 19.2265774,26.8989311 C19.2265774,27.4692716 19.5543853,27.8571031 20.0608599,27.8571031 C20.842148,27.8571031 21.1268034,27.1901849 21.1268034,26.0745989 L21.1268034,25.7225087 Z M18.551278,22.8966616 C18.9207243,22.7027459 19.4377977,22.436587 20.2720802,22.436587 C21.9603288,22.436587 22.3509729,23.3818313 22.3509729,24.9468456 L22.3509729,27.6745941 C22.3509729,28.1240225 22.315391,28.5361885 22.3471876,28.7787734 L21.1646565,28.7787734 C21.1381593,28.4928427 21.1691989,28.2335278 21.1691989,27.9293462 L21.1480011,27.9293462 C20.8209503,28.4388504 20.4091085,28.875351 19.6278203,28.875351 C18.783696,28.875351 18.0024079,28.2091933 18.0024079,27.0441778 C18.0024079,25.3468444 19.2053797,24.9217507 20.8625887,24.9217507 L21.1268034,24.9217507 L21.1268034,24.6920935 C21.1268034,24.073084 20.8625887,23.5035039 20.1138542,23.5035039 C19.4589955,23.5035039 18.8783288,23.8677614 18.6254701,24.1095858 L18.551278,22.8966616 Z" id="Fill-34" fill="#FFFFFF"></path>
                        <path d="M25.9079537,27.6155069 C26.6362475,27.6155069 27.045061,26.9599955 27.045061,25.7105696 C27.045061,24.2679884 26.6892418,23.5402339 25.9291514,23.5402339 C25.1584621,23.5402339 24.8950045,24.4193187 24.8950045,25.595741 C24.8950045,26.8086652 25.1902588,27.6155069 25.9079537,27.6155069 L25.9079537,27.6155069 Z M23.5860441,23.6003097 C23.5860441,23.1516419 23.5822588,22.8086771 23.5822588,22.5440391 L24.7276938,22.5470809 C24.7390497,22.7425176 24.7322362,22.7660917 24.7322362,23.190425 L24.7640328,23.190425 C24.9752531,22.6573468 25.4431175,22.4360547 26.2879989,22.4360547 C27.6385977,22.4360547 28.2760441,23.9158981 28.2760441,25.6497333 C28.2760441,27.68775 27.4909706,28.7189256 26.3197955,28.7189256 C25.5385073,28.7189256 25.1054678,28.6010553 24.9154452,28.1158856 L24.8950045,28.1158856 L24.8950045,31.084698 L23.5860441,31.084698 L23.5860441,23.6003097 Z" id="Fill-35" fill="#FFFFFF"></path>
                        <path d="M34.6471006,27.1037974 C34.8666486,27.1980937 35.4276316,27.5828834 36.065835,27.5828834 C36.5601966,27.5828834 36.9455412,27.4528458 36.9455412,26.9821247 C36.9455412,26.746384 36.8357672,26.5228105 36.3406486,26.2163476 L35.5457333,25.7068434 C34.9741514,25.3418254 34.5812362,25.076427 34.5812362,24.233844 C34.5812362,23.2604628 35.3398124,22.4361307 36.5382418,22.4361307 C37.2642644,22.4361307 37.8244904,22.6361301 37.9569763,22.6840387 L37.8797559,23.8140734 C37.539078,23.6726289 37.1764452,23.5425913 36.6813266,23.5425913 C36.1316994,23.5425913 35.9007955,23.7669252 35.9007955,24.1319431 C35.9007955,24.4612197 36.065835,24.588976 36.4617785,24.8604581 L37.4020497,25.3121677 C38.1416994,25.7471474 38.3423209,26.3524688 38.3423209,26.8992352 C38.3423209,28.0186235 37.5405921,28.7676707 36.309609,28.7676707 C35.6055412,28.7676707 34.8666486,28.5136791 34.5812362,28.3950483 L34.6471006,27.1037974 Z" id="Fill-36" fill="#FFFFFF"></path>
                        <path d="M31.5315627,27.6155069 C32.2598565,27.6155069 32.6694271,26.9599955 32.6694271,25.7105696 C32.6694271,24.2679884 32.3128508,23.5402339 31.5527605,23.5402339 C30.7820712,23.5402339 30.5186136,24.4193187 30.5186136,25.595741 C30.5186136,26.8086652 30.8138678,27.6155069 31.5315627,27.6155069 L31.5315627,27.6155069 Z M29.2096531,23.6003097 C29.2096531,23.1516419 29.2058678,22.8086771 29.2058678,22.5440391 L30.3520599,22.5470809 C30.3626588,22.7425176 30.3558452,22.7660917 30.3558452,23.190425 L30.3876418,23.190425 C30.5988621,22.6573468 31.0674836,22.4360547 31.9108508,22.4360547 C33.2622068,22.4360547 33.8996531,23.9158981 33.8996531,25.6497333 C33.8996531,27.68775 33.1145797,28.7189256 31.9434045,28.7189256 C31.1621164,28.7189256 30.7290768,28.6010553 30.5390542,28.1158856 L30.5186136,28.1158856 L30.5186136,31.084698 L29.2096531,31.084698 L29.2096531,23.6003097 Z" id="Fill-37" fill="#FFFFFF"></path>
                        <path d="M47.7182328,14.5677892 L49.5276113,14.5677892 L48.647148,11.7700789 L48.6274644,11.7700789 L47.7182328,14.5677892 Z M47.8651028,9.89099707 L49.439035,9.89099707 L52.0501424,17.5153089 L50.4565266,17.5153089 L49.9280972,15.8172151 L47.3169898,15.8172151 L46.7696339,17.5153089 L45.2146282,17.5153089 L47.8651028,9.89099707 Z" id="Fill-38" fill="#F9B500"></path>
                        <path d="M52.6768384,11.994641 L53.987313,11.994641 L53.987313,12.7421673 L54.0069966,12.7421673 C54.3688723,12.1763895 54.8965446,11.8448315 55.5521605,11.8448315 C56.1873356,11.8448315 56.7543751,12.1011045 57.0284316,12.76346 C57.3221718,12.282853 57.8498441,11.8448315 58.5539119,11.8448315 C59.6296972,11.8448315 60.4026576,12.3900771 60.4026576,13.820491 L60.4026576,17.5147766 L59.0134486,17.5147766 L59.0134486,14.3862688 C59.0134486,13.6493889 58.9551548,13.0410257 58.1632678,13.0410257 C57.3804655,13.0410257 57.2343525,13.7459665 57.2343525,14.4395006 L57.2343525,17.5147766 L55.8451435,17.5147766 L55.8451435,14.4189683 C55.8451435,13.7779056 55.8845107,13.0410257 55.0040475,13.0410257 C54.729991,13.0410257 54.0660475,13.2334205 54.0660475,14.3117443 L54.0660475,17.5147766 L52.6768384,17.5147766 L52.6768384,11.994641 Z" id="Fill-39" fill="#F9B500"></path>
                        <path d="M64.6571198,14.813644 C64.4224305,15.0372174 63.9333684,15.0486243 63.5033571,15.1337951 C63.0725887,15.2296123 62.6819446,15.3900681 62.6819446,15.9451995 C62.6819446,16.5109773 63.0824305,16.6501404 63.5321254,16.6501404 C64.6177525,16.6501404 64.6571198,15.7102192 64.6571198,15.3794217 L64.6571198,14.813644 Z M61.4494475,13.6919743 C61.5274249,12.2722067 62.6910294,11.8448315 63.8258655,11.8448315 C64.8327582,11.8448315 66.0455718,12.0904582 66.0455718,13.4144086 L66.0455718,16.2866434 C66.0455718,16.788543 66.0940237,17.2904427 66.2212102,17.5147766 L64.8130746,17.5147766 C64.7646226,17.3444349 64.7252554,17.1626864 64.7154136,16.9809379 C64.2755605,17.4828375 63.6297864,17.664586 63.0142949,17.664586 C62.0558542,17.664586 61.2927356,17.1413937 61.2927356,16.0090777 C61.2927356,14.7604122 62.1535153,14.4615538 63.0142949,14.333037 C63.8652328,14.1946344 64.6571198,14.2265735 64.6571198,13.6068035 C64.6571198,12.9558548 64.246035,12.8592772 63.7569729,12.8592772 C63.2293006,12.8592772 62.8871085,13.0942575 62.8378994,13.6919743 L61.4494475,13.6919743 Z" id="Fill-40" fill="#F9B500"></path>
                        <path d="M67.2291627,16.3724226 L69.8599537,13.1374513 L67.4244847,13.1374513 L67.4244847,11.9944889 L71.6882588,11.9944889 L71.6882588,13.1374513 L69.0582249,16.3724226 L71.874496,16.3724226 L71.874496,17.5146245 L67.2291627,17.5146245 L67.2291627,16.3724226 Z" id="Fill-41" fill="#F9B500"></path>
                        <path d="M74.9255322,16.5220799 C75.8741311,16.5220799 76.1580294,15.6353906 76.1580294,14.760108 C76.1580294,13.8741791 75.8741311,12.9874897 74.9255322,12.9874897 C73.9875322,12.9874897 73.7036339,13.8741791 73.7036339,14.760108 C73.7036339,15.6353906 73.9875322,16.5220799 74.9255322,16.5220799 M74.9255322,11.8452878 C76.5199051,11.8452878 77.5464814,12.9981361 77.5464814,14.760108 C77.5464814,16.5114336 76.5199051,17.6642818 74.9255322,17.6642818 C73.3417582,17.6642818 72.3151819,16.5114336 72.3151819,14.760108 C72.3151819,12.9981361 73.3417582,11.8452878 74.9255322,11.8452878" id="Fill-42" fill="#F9B500"></path>
                        <path d="M78.2509277,11.994641 L79.5712441,11.994641 L79.5712441,12.76346 L79.6007695,12.76346 C79.9528034,12.14369 80.5592102,11.8448315 81.1459333,11.8448315 C82.6229616,11.8448315 82.9946791,12.7528136 82.9946791,14.1193495 L82.9946791,17.5147766 L81.6054701,17.5147766 L81.6054701,14.3969152 C81.6054701,13.4896935 81.360939,13.0410257 80.715922,13.0410257 C79.9626452,13.0410257 79.6401367,13.5003399 79.6401367,14.6212491 L79.6401367,17.5147766 L78.2509277,17.5147766 L78.2509277,11.994641 Z" id="Fill-43" fill="#F9B500"></path>
                        <path d="M91.5010294,10.1313766 L92.3898203,11.1595104 C92.1384757,11.3929698 91.0467921,12.4119781 90.8242158,12.6249053 C90.4479559,12.9640677 89.9944757,13.3625456 89.1836621,14.0416311 L88.7771198,13.4401119 C88.718826,16.6226119 87.5408373,17.4659554 85.5800463,18.1549268 C85.454374,17.738198 85.2037864,17.2728001 84.8646226,16.9131054 C87.4250068,16.3990385 87.4250068,14.8469519 87.4348486,12.3724345 L88.7968034,12.3724345 L88.7968034,12.7511406 C89.2888938,12.3534232 89.8301932,11.8484817 90.2745887,11.4317529 L84.6049503,11.4317529 L84.6049503,10.2188288 L91.3564305,10.2188288 L91.5010294,10.1313766 Z" id="Fill-44" fill="#F9B500"></path>
                        <path d="M100.801689,10.6552533 C101.130254,10.6552533 101.303621,10.3936572 101.303621,10.1609582 C101.303621,9.85981846 101.03335,9.65601679 100.801689,9.65601679 C100.540503,9.65601679 100.309599,9.91761296 100.309599,10.1609582 C100.309599,10.4712235 100.579113,10.6552533 100.801689,10.6552533 L100.801689,10.6552533 Z M101.921384,10.1609582 C101.921384,10.8400437 101.381599,11.2864302 100.820616,11.2864302 C100.144559,11.2864302 99.6812373,10.6453674 99.6812373,10.1609582 C99.6812373,9.55943913 100.183927,9.03472587 100.801689,9.03472587 C101.400525,9.03472587 101.921384,9.51077007 101.921384,10.1609582 L101.921384,10.1609582 Z M99.6517119,10.6651392 L100.685859,11.5769236 C100.608638,11.751828 100.328525,12.5472629 100.26039,12.7122814 C99.2171582,15.4286231 97.7885819,16.9913561 94.609678,18.1069421 C94.4946045,17.6415443 94.2531017,17.2042832 93.9146949,16.835463 C97.5750904,15.9624618 98.5032486,13.5753967 99.1308531,11.9655156 L93.5762881,11.9655156 L93.5762881,10.7427056 L99.507113,10.7427056 L99.6517119,10.6651392 Z" id="Fill-45" fill="#F9B500"></path>
                        <path d="M108.277678,9.84027479 C108.277678,13.2265765 108.267079,13.6052826 108.180774,14.4197288 C108.112638,15.0896888 107.977881,15.8562264 107.360119,16.5642091 C106.596243,17.4661075 105.350876,17.912494 104.384107,18.1550789 C104.278876,17.7284642 104.075226,17.2721918 103.766345,16.9033716 C106.355497,16.4957682 106.954333,15.5550866 106.954333,13.0227748 C106.964175,12.7604182 106.964175,12.4311416 106.964175,9.84027479 L108.277678,9.84027479 Z M104.336412,15.0798029 L103.013068,15.0798029 L103.013068,10.3064331 L104.336412,10.3064331 L104.336412,15.0798029 Z" id="Fill-46" fill="#F9B500"></path>
                        <path d="M116.197229,10.4321361 L117.018642,11.3249091 C116.835433,11.5872658 116.738529,11.7804211 116.661308,11.9363142 C116.168461,12.9157789 115.724066,13.5469557 115.44471,13.9446732 C117.08602,15.4579766 117.38506,15.8556941 118.313218,17.0876296 L117.201851,17.9515053 C116.197229,16.4670991 115.579467,15.8366827 114.670992,14.9150125 C113.309794,16.3507496 112.489139,16.981166 110.721399,17.82527 C110.576043,17.4374384 110.353467,17.039721 109.890145,16.6709008 C112.508066,15.6328811 113.975252,14.1576003 115.299354,11.7325125 L111.020438,11.7325125 L111.020438,10.4906911 L116.052631,10.4906911 L116.197229,10.4321361 Z" id="Fill-47" fill="#F9B500"></path>
                        <path d="M121.268183,9.67540836 L121.268183,12.2563892 C122.736884,12.790228 123.779358,13.1582877 125.363889,14.0799579 L124.659064,15.2928821 C123.596149,14.5947853 122.67859,14.1674102 121.268183,13.5757769 L121.268183,18.0974364 L119.897144,18.0974364 L119.897144,9.67540836 L121.268183,9.67540836 Z" id="Fill-48" fill="#F9B500"></path>
                        <path d="M132.482166,10.1313766 L133.370957,11.1595104 C133.120369,11.3929698 132.027929,12.4119781 131.80611,12.6249053 C131.429093,12.9640677 130.975612,13.3625456 130.164042,14.0416311 L129.758256,13.4401119 C129.699963,16.6226119 128.522731,17.4659554 126.561183,18.1549268 C126.436268,17.738198 126.184923,17.2728001 125.846516,16.9131054 C128.406144,16.3990385 128.406144,14.8469519 128.415985,12.3724345 L129.77794,12.3724345 L129.77794,12.7511406 C130.270031,12.3534232 130.81133,11.8484817 131.255725,11.4317529 L125.586087,11.4317529 L125.586087,10.2188288 L132.337567,10.2188288 L132.482166,10.1313766 Z" id="Fill-49" fill="#F9B500"></path>
                        <path d="M52.9126633,24.5825882 C53.2351718,24.8609143 53.6023469,25.2654759 53.8703469,25.5894293 L53.3154203,26.0753594 C53.055748,25.751406 52.7067424,25.3559699 52.3577367,25.0320165 L52.9126633,24.5825882 Z M52.0352282,25.23886 C52.3751492,25.535437 52.7158271,25.9225081 53.0019966,26.2913283 L52.4470701,26.7498821 C52.1699853,26.3536855 51.8474768,25.9856258 51.5166407,25.6791628 L52.0352282,25.23886 Z M53.4138384,24.2502698 C52.7158271,24.304262 51.9640644,24.3483683 51.3818836,24.3848701 C50.2629458,25.0137656 49.4748441,26.0662339 49.4748441,27.0456987 C49.4748441,27.289044 49.5293525,28.1612847 50.4242,28.6373289 C50.8178723,28.8441724 51.301635,28.9977841 52.2229797,29.0152746 L52.1964825,30.2920768 C50.764878,30.1666019 50.1463582,29.9148916 49.5202678,29.4654633 C49.278765,29.2936007 48.329409,28.6555798 48.329409,27.2350517 C48.329409,27.073075 48.3384938,26.7407566 48.499748,26.263952 C48.7056689,25.6251706 49.108426,25.0593928 49.6724373,24.5194705 C48.1325729,24.6814472 47.5776463,24.7620553 45.9219514,24.9962751 L45.8682,23.8183319 C48.4815785,23.6388648 50.9882113,23.4137704 53.3691718,23.1164329 L53.4138384,24.2502698 Z" id="Fill-50" fill="#FFFFFF"></path>
                        <path d="M63.6338746,21.5199357 C64.0010497,21.8013037 64.3871514,22.1404662 64.7255582,22.4803891 L64.1653322,23.0332392 C63.846609,22.7039626 63.5180441,22.3632792 63.1024169,22.053014 L63.6338746,21.5199357 Z M62.8518294,22.2765875 C63.2280893,22.5579554 63.614948,22.9267756 63.9139876,23.2560522 L63.4022136,23.7708796 C63.1319424,23.4317171 62.7261571,23.0431251 62.3688237,22.7328599 L62.8518294,22.2765875 Z M62.4263605,23.3054817 L62.542191,23.2666986 L63.4120554,24.1389393 C63.2962249,24.3625128 62.8419876,25.4203043 62.7359989,25.6233455 C61.3831288,28.3115504 59.6835243,29.6309381 56.853626,30.6111633 C56.6893435,30.1845486 56.4955356,29.7761848 56.0806655,29.359456 C56.7082701,29.2043234 56.9982249,29.1077458 57.2488124,29.0195331 C57.8574904,28.7875946 58.8431853,28.3602195 59.7698294,27.5161155 C59.4897164,27.243873 59.3065073,27.069729 58.2246655,26.2248646 L58.9877842,25.4203043 C59.6835243,25.8568049 60.1566881,26.2248646 60.6495356,26.6134566 C61.2196034,25.8666908 61.5958633,25.0712559 61.8184395,24.4697368 L59.3549593,24.4697368 C58.6304508,25.5176424 57.6553548,26.5069931 56.3804621,27.2347476 C56.196496,26.8856992 55.9549932,26.4780958 55.5590497,26.176956 C56.4092305,25.7404554 57.9445525,24.8575683 59.1619085,22.0826717 L60.4754113,22.4895146 C60.349739,22.7518712 60.1952983,23.0332392 60.0506994,23.3054817 L62.4263605,23.3054817 Z" id="Fill-51" fill="#FFFFFF"></path>
                        <path d="M69.1943446,22.1022154 L69.1943446,23.6733133 L72.0151582,23.6733133 C71.9863898,25.0619023 71.9477797,27.0109459 70.7879605,28.4763408 C69.9090113,29.5630296 68.6341186,30.1447769 66.7702316,30.5622661 C66.6733277,30.1059937 66.4613503,29.6504818 66.1327853,29.2915475 C70.0157571,28.7675947 70.4889209,26.9242542 70.5956667,24.7995457 L66.4219831,24.7995457 L66.4219831,26.9820487 L65.1380056,26.9820487 L65.1380056,23.6733133 L67.8619153,23.6733133 L67.8619153,22.1022154 L69.1943446,22.1022154 Z" id="Fill-52" fill="#FFFFFF"></path>
                        <path d="M73.5592621,29.0583923 C76.6306633,28.0401444 78.6686746,26.3808338 80.3879627,24.0622095 C80.6385503,24.4492806 80.9194203,24.7701922 81.305522,25.0416743 C80.0306294,26.6135327 79.0350927,27.6226551 77.4997706,28.6317776 C76.3891605,29.3686575 76.0992056,29.5047788 74.1967085,30.3876659 L73.5592621,29.0583923 Z M75.7903243,25.2553618 C74.9303017,24.4698128 74.3897593,24.0523236 73.5304938,23.4698158 L74.3223808,22.4606934 C75.2202565,22.9854066 76.0704373,23.6348343 76.6889571,24.178559 L75.7903243,25.2553618 Z" id="Fill-53" fill="#FFFFFF"></path>
                        <path d="M83.787096,28.0691177 L87.8245085,28.0691177 L87.8245085,24.2554409 L83.787096,24.2554409 L83.787096,28.0691177 Z M89.1766215,23.0524026 L89.1766215,29.7573256 L87.8245085,29.7573256 L87.8245085,29.2919277 L83.787096,29.2919277 L83.787096,29.8440173 L82.482678,29.8440173 L82.482678,23.0524026 L89.1766215,23.0524026 Z" id="Fill-54" fill="#FFFFFF"></path>
                        <path d="M98.4619887,26.8364217 L90.8315593,26.8364217 L90.8315593,25.6044863 L98.4619887,25.6044863 L98.4619887,26.8364217 Z" id="Fill-55" fill="#FFFFFF"></path>
                        <path d="M105.092642,22.0925576 C105.517354,22.3929369 105.913297,22.7518712 106.280472,23.1108055 L105.691478,23.7123246 C105.333388,23.3435044 104.957128,22.9754447 104.532416,22.6750654 L105.092642,22.0925576 Z M104.860224,24.5663145 C104.551342,24.2172661 104.126631,23.8286741 103.720845,23.4993975 L104.261388,22.9556729 C104.658088,23.2666986 105.072958,23.615747 105.421207,23.9838067 L104.860224,24.5663145 Z M102.155998,22.0925576 L102.155998,24.6826639 C104.377975,25.4780988 105.266766,25.9929262 106.222179,26.5457762 L105.526438,27.7290427 C104.135715,26.8362697 102.997094,26.3320886 102.155998,26.0218234 L102.155998,30.533597 L100.784958,30.533597 L100.784958,22.0925576 L102.155998,22.0925576 Z" id="Fill-56" fill="#FFFFFF"></path>
                    </g>
                </g>
            </g>
        </g>
    </g>
</svg>