<?xml version="1.0" encoding="UTF-8" standalone="no"?>
<svg width="170px" height="58px" viewBox="0 0 170 58" version="1.1" xmlns="http://www.w3.org/2000/svg" xmlns:xlink="http://www.w3.org/1999/xlink">
    <!-- Generator: Sketch 3.6.1 (26313) - http://www.bohemiancoding.com/sketch -->
    <title>google play</title>
    <desc>Created with Sketch.</desc>
    <defs>
        <linearGradient x1="60.1573701%" y1="91.8476975%" x2="33.5579439%" y2="-59.5891331%" id="linearGradient-1">
            <stop stop-color="#D6FFA1" offset="0%"></stop>
            <stop stop-color="#93E2A7" offset="32.64%"></stop>
            <stop stop-color="#00A3B5" offset="100%"></stop>
        </linearGradient>
        <linearGradient x1="-32.1721676%" y1="-129.73572%" x2="80.1668869%" y2="113.997954%" id="linearGradient-2">
            <stop stop-color="#FF177B" offset="0%"></stop>
            <stop stop-color="#FFA976" offset="67.21%"></stop>
            <stop stop-color="#FFEC73" offset="100%"></stop>
        </linearGradient>
        <linearGradient x1="50.8193668%" y1="74.6634124%" x2="-0.0289932314%" y2="-29.3364075%" id="linearGradient-3">
            <stop stop-color="#63FFD4" offset="0%"></stop>
            <stop stop-color="#32A0BA" offset="48.54%"></stop>
            <stop stop-color="#1262A9" offset="83.49%"></stop>
            <stop stop-color="#064AA2" offset="100%"></stop>
        </linearGradient>
        <linearGradient x1="119.507988%" y1="35.5351563%" x2="-23.112411%" y2="61.0134747%" id="linearGradient-4">
            <stop stop-color="#FF4521" offset="0%"></stop>
            <stop stop-color="#D43E65" offset="34.11%"></stop>
            <stop stop-color="#9F36B9" offset="79.35%"></stop>
            <stop stop-color="#8A33DB" offset="100%"></stop>
        </linearGradient>
    </defs>
    <g id="following" stroke="none" stroke-width="1" fill="none" fill-rule="evenodd">
        <g id="[1-2]following" transform="translate(-813.000000, -1913.000000)">
            <g id="Footer" transform="translate(0.000000, 1844.000000)">
                <g id="google-play" transform="translate(813.000000, 69.000000)">
                    <rect id="Rectangle-30" fill="#000000" x="0" y="0" width="170" height="58" rx="6"></rect>
                    <g id="icon-+-Google-play-+-Get-it-on" transform="translate(20.000000, 11.000000)">
                        <g id="google-play-icon" transform="translate(0.000000, 10.786026)">
                            <path d="M13,12.489083 L16.8034934,8.62882096 L13,12.489083 L0.737991266,0.227074236 L13,12.489083 L0.737991266,24.7510917 L13,12.489083 L16.860262,16.349345 L13,12.489083 Z" id="Shape"></path>
                            <path d="M16.8034934,8.62882096 L1.87336245,0.454148472 C1.47598253,0.227074236 1.07860262,0.170305677 0.737991266,0.283842795 L13,12.489083 L16.8034934,8.62882096 L16.8034934,8.62882096 Z" id="Shape" fill="url(#linearGradient-1)"></path>
                            <path d="M16.860262,16.349345 L21.9694323,13.5676856 C22.9912664,13 22.9912664,12.0917031 21.9694323,11.5240175 L16.860262,8.68558952 L13,12.489083 L16.860262,16.349345 L16.860262,16.349345 Z" id="Shape" fill="url(#linearGradient-2)"></path>
                            <path d="M0.737991266,0.227074236 C0.283842795,0.397379913 0,0.851528384 0,1.53275109 L0,23.4454148 C0,24.1266376 0.283842795,24.580786 0.737991266,24.7510917 L13,12.489083 L0.737991266,0.227074236 L0.737991266,0.227074236 Z" id="Shape" fill="url(#linearGradient-3)"></path>
                            <path d="M0.737991266,24.7510917 C1.07860262,24.8646288 1.47598253,24.8078603 1.87336245,24.580786 L16.8034934,16.349345 L13,12.489083 L0.737991266,24.7510917 L0.737991266,24.7510917 Z" id="Shape" fill="url(#linearGradient-4)"></path>
                        </g>
                        <g id="google-play" transform="translate(27.816594, 13.624454)" fill="#FFFFFF">
                            <path d="M95.7812469,19.30131 L102.183406,4.54148472 L100.098266,4.54148472 L97.1370209,11.900416 L97.0951642,11.900416 L94.0506866,4.54148472 L91.9650655,4.54148472 L96.1776833,14.1374693 L93.8005083,19.30131 L95.7812469,19.30131" id="Fill-3"></path>
                            <path d="M86.8558952,4.54148472 C84.29365,4.54148472 83.0641952,6.07076837 82.7104506,7.00035165 L84.4599484,7.74401826 C84.8141736,6.79345978 85.8350344,6.27718353 86.8977101,6.27718353 C88.3352782,6.27718353 89.5642523,7.2067668 89.5642523,8.73605046 L89.5642523,9.02541305 C89.1682122,8.79802268 88.1684992,8.40521416 86.7934131,8.40521416 C84.3974663,8.40521416 82.3144105,9.64513523 82.3144105,11.938584 C82.3144105,14.0465928 84.0432411,15.3275109 86.1267776,15.3275109 C87.876756,15.3275109 88.9182839,14.4389247 89.4806225,13.5918121 L89.5642523,13.5918121 L89.5642523,14.9966746 L91.3973799,14.9966746 L91.3973799,8.8804934 C91.3973799,6.02929466 89.3556583,4.54148472 86.8558952,4.54148472 L86.8558952,4.54148472 Z M86.4391879,13.5918121 C85.4394749,13.5918121 84.3143171,13.0545606 84.3143171,11.9800577 C84.3143171,11.0499977 85.1059168,9.97597153 87.1269712,9.97597153 C88.7515049,9.97597153 89.5642523,10.6366907 89.5642523,10.6366907 C89.5642523,12.2899188 87.9599052,13.5918121 86.4391879,13.5918121 L86.4391879,13.5918121 Z" id="Fill-2"></path>
                            <path d="M79.4759825,0.56768559 L81.1790393,0.56768559 L81.1790393,15.3275109 L79.4759825,15.3275109 L79.4759825,0.56768559 Z" id="Fill-1"></path>
                            <path d="M73.154065,0.56768559 L68.1222707,0.56768559 L68.1222707,15.3275109 L70.0194812,15.3275109 L70.0194812,9.3493893 L73.154065,9.3493893 C75.6074036,9.3493893 77.7729258,7.5355026 77.7729258,4.95877524 C77.7729258,2.38204788 75.6074036,0.56768559 73.154065,0.56768559 L73.154065,0.56768559 Z M73.1949778,7.5355026 L70.0194812,7.5355026 L70.0194812,2.38204788 L73.1949778,2.38204788 C74.8857215,2.38204788 75.8343268,3.78360113 75.8343268,4.95877524 C75.8343268,6.13347376 74.8857215,7.5355026 73.1949778,7.5355026 L73.1949778,7.5355026 Z" id="Fill-4"></path>
                            <path d="M54.7734756,10.3013455 C54.7161717,8.3836793 56.2820013,7.40651558 57.4089785,7.40651558 C58.2876386,7.40651558 59.032112,7.8389305 59.280429,8.4588819 L54.7734756,10.3013455 L54.7734756,10.3013455 Z M57.5808902,15.4141819 C59.8916709,15.4141819 61.2282848,14.0229339 61.7822227,13.214976 L60.0635826,12.0869371 C59.4905434,12.9141656 58.7073898,13.4593845 57.5808902,13.4593845 C56.4539131,13.4593845 55.6516582,12.9517669 55.1364005,11.9553326 L61.8777293,9.21090785 L61.6485136,8.64688838 C61.2282848,7.53812012 59.9489748,5.48884941 57.3325732,5.48884941 C54.735273,5.48884941 52.5773028,7.50051883 52.5773028,10.4517507 C52.5773028,13.2337767 54.7161717,15.4141819 57.5808902,15.4141819 L57.5808902,15.4141819 Z" id="Fill-5"></path>
                            <path d="M49.2923555,15.1133715 L51.5076296,15.1133715 L51.5076296,0.526418165 L49.2923555,0.526418165 L49.2923555,15.1133715 Z" id="Path"></path>
                            <path d="M42.970778,19.8689956 C45.5680782,19.8689956 47.764251,18.3654137 47.764251,14.6997573 L47.764251,5.78965979 L45.6635847,5.78965979 L45.6635847,6.59808768 L45.5871795,6.59808768 C45.0905455,6.01526757 44.1354802,5.48884941 42.9325754,5.48884941 C40.4116803,5.48884941 38.1008997,7.66972466 38.1008997,10.4705513 C38.1008997,13.2525773 40.4116803,15.4141819 42.9325754,15.4141819 C44.1354802,15.4141819 45.0905455,14.8877637 45.5871795,14.286143 L45.6635847,14.286143 L45.6635847,15.0005676 C45.6635847,16.8989631 44.6321142,17.9141982 42.970778,17.9141982 C41.6145852,17.9141982 40.7746052,16.9553651 40.4307817,16.1474072 L38.5015496,16.9365644 C39.0554875,18.2526099 40.5262882,19.8689956 42.970778,19.8689956 Z M43.1235884,13.4593845 C41.5954839,13.4593845 40.3161738,12.199741 40.3161738,10.4705513 C40.3161738,8.72209098 41.5954839,7.44411688 43.1235884,7.44411688 C44.6321142,7.44411688 45.8163952,8.72209098 45.8163952,10.4705513 C45.8163952,12.199741 44.6321142,13.4593845 43.1235884,13.4593845 Z" id="Path"></path>
                            <path d="M32.1231457,15.4141819 C34.911459,15.4141819 37.184037,13.3089793 37.184037,10.4517507 C37.184037,7.57572142 34.911459,5.48884941 32.1231457,5.48884941 C29.3348324,5.48884941 27.0622544,7.57572142 27.0622544,10.4517507 C27.0622544,13.3089793 29.3348324,15.4141819 32.1231457,15.4141819 Z M32.1231457,13.4593845 C30.5950411,13.4593845 29.2775284,12.2185416 29.2775284,10.4517507 C29.2775284,8.66568903 30.5950411,7.44411688 32.1231457,7.44411688 C33.6507727,7.44411688 34.9687629,8.66568903 34.9687629,10.4517507 C34.9687629,12.2185416 33.6507727,13.4593845 32.1231457,13.4593845 Z" id="Path"></path>
                            <path d="M21.0845003,15.4141819 C23.8728136,15.4141819 26.1453916,13.3089793 26.1453916,10.4517507 C26.1453916,7.57572142 23.8728136,5.48884941 21.0845003,5.48884941 C18.296187,5.48884941 16.0231315,7.57572142 16.0231315,10.4517507 C16.0231315,13.3089793 18.296187,15.4141819 21.0845003,15.4141819 Z M21.0845003,13.4593845 C19.5563957,13.4593845 18.2388831,12.2185416 18.2388831,10.4517507 C18.2388831,8.66568903 19.5563957,7.44411688 21.0845003,7.44411688 C22.6121273,7.44411688 23.9301175,8.66568903 23.9301175,10.4517507 C23.9301175,12.2185416 22.6121273,13.4593845 21.0845003,13.4593845 Z" id="Path"></path>
                            <path d="M7.94471115,15.4141819 C10.2750706,15.4141819 12.0319133,14.662156 13.4067299,13.2525773 C14.8202266,11.8613293 15.2595567,9.90653185 15.2595567,8.32727736 C15.2595567,7.8389305 15.2213541,7.38771493 15.1449489,7.01170196 L7.94471115,7.01170196 L7.94471115,9.1169046 L13.0629064,9.1169046 C12.9100959,10.3013455 12.509446,11.1657053 11.8982042,11.7673261 C11.1532532,12.5005514 9.98807348,13.3089793 7.94471115,13.3089793 C4.79347301,13.3089793 2.32988193,10.808963 2.32988193,7.70732596 C2.32988193,4.60568893 4.79347301,2.10567266 7.94471115,2.10567266 C9.64472748,2.10567266 10.8858349,2.76322535 11.8026977,3.60925455 L13.3112234,2.12447331 C12.0319133,0.92123179 10.331897,0 7.94471115,0 C3.62877081,0 0,3.45884936 0,7.70732596 C0,11.9553326 3.62877081,15.4141819 7.94471115,15.4141819 L7.94471115,15.4141819 Z" id="Path"></path>
                        </g>
                        <path d="M33.4792611,5.86046789 C33.4112567,5.94916921 33.3166434,6.04747836 33.1954183,6.1553983 C33.0741931,6.26331823 32.918229,6.36384488 32.7275212,6.45698127 C32.5368133,6.55011765 32.3076717,6.6284693 32.0400894,6.69203858 C31.7725071,6.75560786 31.4583613,6.78739202 31.0976426,6.78739202 C30.6925733,6.78739202 30.3207725,6.71791036 29.9822291,6.57894497 C29.6436858,6.43997957 29.3531933,6.23892627 29.110743,5.97577903 C28.8682928,5.71263179 28.6798053,5.38887684 28.545275,5.00450447 C28.4107446,4.62013209 28.3434805,4.18106716 28.3434805,3.6872965 L28.3434805,3.2615323 C28.3434805,2.77071835 28.4040921,2.33239259 28.5253173,1.94654186 C28.6465424,1.56069113 28.8209857,1.23471868 29.0486524,0.968614728 C29.2763191,0.702510778 29.5542458,0.499979142 29.8824406,0.361013746 C30.2106355,0.222048349 30.5831755,0.152566693 31.0000716,0.152566693 C31.3933141,0.152566693 31.7362874,0.203569185 32.0290018,0.3055757 C32.3217161,0.407582214 32.5685977,0.550241359 32.7696541,0.733557414 C32.9707104,0.916873469 33.128892,1.1349276 33.2442037,1.38772635 C33.3595155,1.64052511 33.4363888,1.91771257 33.474826,2.21929704 L32.3749352,2.21929704 C32.3483248,2.05076454 32.3039748,1.89553956 32.2418839,1.75361746 C32.1797929,1.61169535 32.0947888,1.4889937 31.9868689,1.38550883 C31.8789489,1.28202396 31.7458989,1.20071564 31.5877149,1.14158143 C31.4295309,1.08244722 31.2410434,1.05288056 31.0222469,1.05288056 C30.7590996,1.05288056 30.5306972,1.10166555 30.3370326,1.199237 C30.1433681,1.29680845 29.9822298,1.43946759 29.8536129,1.62721871 C29.7249959,1.81496983 29.6289043,2.0455898 29.565335,2.31908553 C29.5017657,2.59258125 29.4699816,2.90377037 29.4699816,3.25266222 L29.4699816,3.6872965 C29.4699816,4.04210176 29.5084182,4.35624755 29.5852927,4.62974328 C29.6621672,4.903239 29.772303,5.1331198 29.9157035,5.31939257 C30.0591039,5.50566533 30.2335472,5.64758531 30.4390386,5.74515676 C30.64453,5.84272821 30.8773675,5.8915132 31.137558,5.8915132 C31.3297442,5.8915132 31.4945783,5.87894737 31.6320654,5.85381533 C31.7695524,5.82868329 31.8856016,5.79689913 31.9802163,5.75846189 C32.074831,5.72002465 32.1524435,5.67789216 32.2130561,5.63206315 C32.2736687,5.58623413 32.3231928,5.5426233 32.36163,5.50122936 L32.36163,4.23724191 L31.0311169,4.23724191 L31.0311169,3.38571353 L33.4792611,3.38571353 L33.4792611,5.86046789 Z M38.4864254,3.81591276 L35.8342692,3.81591276 L35.8342692,5.80281233 L38.9343648,5.80281233 L38.9343648,6.69869115 L34.7122032,6.69869115 L34.7122032,0.241267567 L38.9033195,0.241267567 L38.9033195,1.14601647 L35.8342692,1.14601647 L35.8342692,2.92890403 L38.4864254,2.92890403 L38.4864254,3.81591276 Z M44.5136497,1.14601647 L42.5001399,1.14601647 L42.5001399,6.69869115 L41.3869439,6.69869115 L41.3869439,1.14601647 L39.3911743,1.14601647 L39.3911743,0.241267567 L44.5136497,0.241267567 L44.5136497,1.14601647 Z M48.806772,6.69869115 L47.689141,6.69869115 L47.689141,0.241267567 L48.806772,0.241267567 L48.806772,6.69869115 Z M54.8517365,1.14601647 L52.8382267,1.14601647 L52.8382267,6.69869115 L51.7250307,6.69869115 L51.7250307,1.14601647 L49.7292611,1.14601647 L49.7292611,0.241267567 L54.8517365,0.241267567 L54.8517365,1.14601647 Z M63.1142228,3.63851102 C63.1142228,4.12932497 63.0499154,4.56912907 62.9212984,4.95793651 C62.7926815,5.34674395 62.6115857,5.67641223 62.3780056,5.94695125 C62.1444255,6.21749026 61.8635422,6.42519606 61.5353473,6.57007488 C61.2071524,6.7149537 60.8434825,6.78739202 60.4443266,6.78739202 C60.0481273,6.78739202 59.6859357,6.7149537 59.3577409,6.57007488 C59.029546,6.42519606 58.7464452,6.21749026 58.50843,5.94695125 C58.2704148,5.67641223 58.0856232,5.34674395 57.9540495,4.95793651 C57.8224759,4.56912907 57.7566901,4.12932497 57.7566901,3.63851102 L57.7566901,3.31031778 C57.7566901,2.81950383 57.8224759,2.37896057 57.9540495,1.98867477 C58.0856232,1.59838898 58.2689365,1.26724236 58.503995,0.99522499 C58.7390534,0.723207618 59.0206759,0.514762651 59.3488708,0.369883833 C59.6770656,0.225005015 60.0392573,0.152566693 60.4354565,0.152566693 C60.8346124,0.152566693 61.1990215,0.225005015 61.5286947,0.369883833 C61.858368,0.514762651 62.1407296,0.723207618 62.3757881,0.99522499 C62.6108466,1.26724236 62.7926815,1.59838898 62.9212984,1.98867477 C63.0499154,2.37896057 63.1142228,2.81950383 63.1142228,3.31031778 L63.1142228,3.63851102 Z M61.9921568,3.3014477 C61.9921568,2.94072901 61.957416,2.62214822 61.8879333,2.34569579 C61.8184506,2.06924335 61.7171848,1.83788422 61.5841328,1.65161145 C61.4510808,1.46533869 61.287725,1.32415788 61.0940605,1.22806478 C60.9003959,1.13197169 60.6808634,1.08392586 60.4354565,1.08392586 C60.1959629,1.08392586 59.9801263,1.13197169 59.7879401,1.22806478 C59.5957539,1.32415788 59.4323981,1.46533869 59.2978678,1.65161145 C59.1633374,1.83788422 59.0598541,2.06924335 58.9874147,2.34569579 C58.9149753,2.62214822 58.8787561,2.94072901 58.8787561,3.3014477 L58.8787561,3.63851102 C58.8787561,3.9992297 58.9149753,4.31854966 58.9874147,4.59648045 C59.0598541,4.87441124 59.1640766,5.10724871 59.3000853,5.29499983 C59.436094,5.48275095 59.6009281,5.62467093 59.7945927,5.72076402 C59.9882572,5.81685711 60.204833,5.86490294 60.4443266,5.86490294 C60.9410539,5.86490294 61.323203,5.6756763 61.5907853,5.29721735 C61.8583676,4.9187584 61.9921568,4.36586181 61.9921568,3.63851102 L61.9921568,3.3014477 Z M69.3543293,6.69869115 L68.2322632,6.69869115 L65.3539199,2.11729104 L65.3539199,6.69869115 L64.2318538,6.69869115 L64.2318538,0.241267567 L65.3539199,0.241267567 L68.2411333,4.84040785 L68.2411333,0.241267567 L69.3543293,0.241267567 L69.3543293,6.69869115 Z" id="GET-IT-ON" fill="#FFFFFF"></path>
                    </g>
                </g>
            </g>
        </g>
    </g>
</svg>