<?xml version="1.0" encoding="UTF-8" standalone="no"?>
<svg width="106px" height="36px" viewBox="0 0 106 36" version="1.1" xmlns="http://www.w3.org/2000/svg" xmlns:xlink="http://www.w3.org/1999/xlink">
    <!-- Generator: Sketch 3.8.3 (29802) - http://www.bohemiancoding.com/sketch -->
    <title>Fan!_Btn_off</title>
    <desc>Created with Sketch.</desc>
    <defs></defs>
    <g id="ボタンデザイン" stroke="none" stroke-width="1" fill="none" fill-rule="evenodd">
        <g id="parts" transform="translate(-340.000000, -1331.000000)">
            <g id="Fan!_Btn_off" transform="translate(340.000000, 1331.000000)">
                <rect id="Rectangle-171" fill="#FF7824" x="0" y="0" width="106" height="36" rx="3"></rect>
                <rect id="Rectangle-171" fill="#FEBC7B" x="0" y="0" width="106" height="36" rx="3"></rect>
                <g id="Group-12" transform="translate(26.000000, 10.000000)" fill="#FFFFFF">
                    <path d="M29.544,9.016 L32.112,9.016 C32.844,9.016 33.3,9.04 33.744,9.1 L33.744,7.504 C33.276,7.564 32.856,7.588 32.112,7.588 L29.544,7.588 L29.544,5.044 L32.736,5.044 C33.504,5.044 33.948,5.068 34.38,5.128 L34.38,3.508 C33.876,3.568 33.492,3.592 32.736,3.592 L29.376,3.592 C28.644,3.592 28.344,3.58 27.852,3.556 C27.924,4.108 27.948,4.456 27.948,5.116 L27.948,11.44 C27.948,12.232 27.924,12.736 27.852,13.144 L29.64,13.144 C29.568,12.688 29.544,12.268 29.544,11.416 L29.544,9.016 Z M40.032,13.144 L41.652,13.144 C41.58,12.604 41.556,12.28 41.556,11.644 L41.556,8.416 C41.556,7.6 41.4,7.144 40.992,6.76 C40.476,6.256 39.78,6.052 38.628,6.052 C37.596,6.052 36.924,6.232 36.336,6.664 C35.88,6.988 35.664,7.3 35.388,7.996 L36.924,8.272 C37.068,7.84 37.176,7.672 37.404,7.504 C37.68,7.288 38.172,7.156 38.652,7.156 C39.564,7.156 40.032,7.516 40.032,8.212 L40.032,8.824 C38.316,8.86 37.428,8.98 36.648,9.304 C35.82,9.652 35.292,10.408 35.292,11.248 C35.292,12.508 36.18,13.264 37.644,13.264 C38.028,13.264 38.412,13.216 38.76,13.12 C39.252,12.988 39.552,12.82 40.032,12.364 L40.032,13.144 Z M40.032,10.468 C40.032,10.888 39.888,11.236 39.6,11.524 C39.192,11.92 38.568,12.16 37.932,12.16 C37.26,12.16 36.84,11.812 36.84,11.248 C36.84,10.312 37.74,9.916 40.032,9.868 L40.032,10.468 Z M44.808,13.144 C44.736,12.628 44.712,12.172 44.712,11.584 L44.712,9.16 C45.24,7.972 45.948,7.372 46.812,7.372 C47.268,7.372 47.628,7.552 47.82,7.864 C47.964,8.092 48.024,8.416 48.024,8.92 L48.024,11.584 C48.024,12.196 48,12.604 47.94,13.144 L49.68,13.144 C49.608,12.7 49.584,12.244 49.584,11.584 L49.584,8.704 C49.584,7.9 49.464,7.42 49.176,7.024 C48.744,6.436 48.06,6.136 47.136,6.136 C46.056,6.136 45.42,6.472 44.688,7.408 C44.712,7.108 44.712,7.072 44.712,6.892 L44.712,6.256 L43.08,6.256 C43.152,6.748 43.176,7.156 43.176,7.816 L43.176,11.584 C43.176,12.256 43.152,12.628 43.08,13.144 L44.808,13.144 Z M53.148,10.516 C53.124,10.276 53.124,10.156 53.124,10.012 C53.124,9.844 53.124,9.844 53.148,9.136 L53.316,5.056 C53.34,4.54 53.388,3.916 53.424,3.592 L51.456,3.592 C51.504,3.928 51.54,4.528 51.564,5.056 L51.732,9.136 C51.768,9.868 51.768,9.868 51.768,10 C51.768,10.144 51.756,10.264 51.744,10.516 L53.148,10.516 Z M53.316,13.144 L53.316,11.5 L51.576,11.5 L51.576,13.144 L53.316,13.144 Z" id="Fan!"></path>
                    <path d="M7.205,10.065 C3.453,10.065 0.412,12.983 0.412,14.84 C0.412,16.112 3.453,16.997 7.205,16.997 C10.957,16.997 13.997,16.112 13.997,14.84 C13.997,12.983 10.957,10.065 7.205,10.065 L7.205,10.065 Z M7.101,9.202 C9.394,9.202 11.253,7.273 11.253,4.893 C11.253,2.515 9.394,0.585 7.101,0.585 C4.808,0.585 2.948,2.515 2.948,4.893 C2.948,7.273 4.808,9.202 7.101,9.202 Z M21.3651065,6.34432432 C20.9553207,5.93143688 20.4112689,5.70384527 19.832278,5.70384527 C19.2532871,5.70384527 18.7087362,5.93143688 18.2994495,6.34432432 C18.1462166,6.49890534 18.0189384,6.67211666 17.9196115,6.85942657 C17.8197855,6.67211666 17.6925073,6.49890534 17.5397735,6.34432432 C17.1299877,5.93143688 16.5859359,5.70384527 16.006945,5.70384527 C15.4279541,5.70384527 14.8834032,5.93143688 14.4741165,6.34432432 C14.0643307,6.75721175 13.8392231,7.30655345 13.8392231,7.89063811 C13.8392231,8.47472277 14.0643307,9.02356095 14.4741165,9.4369519 L17.5457631,12.7430725 C17.6420952,12.8478049 17.7778586,12.9072204 17.9196115,12.9072204 C18.0613645,12.9072204 18.1966287,12.8478049 18.29346,12.7430725 L21.3651065,9.4369519 C21.7743932,9.02356095 22,8.47472277 22,7.89063811 C22,7.30655345 21.7743932,6.75721175 21.3651065,6.34432432 Z" id="Fill-1"></path>
                </g>
            </g>
        </g>
    </g>
</svg>