<?xml version="1.0" encoding="UTF-8" standalone="no"?>
<svg width="170px" height="58px" viewBox="0 0 170 58" version="1.1" xmlns="http://www.w3.org/2000/svg" xmlns:xlink="http://www.w3.org/1999/xlink">
    <!-- Generator: Sketch 3.6.1 (26313) - http://www.bohemiancoding.com/sketch -->
    <title>apple</title>
    <desc>Created with Sketch.</desc>
    <defs></defs>
    <g id="following" stroke="none" stroke-width="1" fill="none" fill-rule="evenodd">
        <g id="[1-2]following" transform="translate(-633.000000, -1913.000000)">
            <g id="Footer" transform="translate(0.000000, 1844.000000)">
                <g id="apple" transform="translate(633.000000, 69.000000)">
                    <rect id="Rectangle-30" fill="#000000" x="0" y="0" width="170" height="58" rx="6"></rect>
                    <g id="Group" transform="translate(18.000000, 11.000000)" fill="#FFFFFF">
                        <path d="M24.7614339,10.6730465 C22.9169251,7.9837991 20.0579975,7.6163622 19.0533445,7.58706491 C16.6521871,7.33437575 14.3230523,9.02385303 13.0998903,9.02385303 C11.8523138,9.02385303 9.968742,7.61147932 7.93868369,7.65298382 C5.32634166,7.6932676 2.88245907,9.20574039 1.54210788,11.5544068 C-1.22404494,16.3432936 0.838972829,23.3807477 3.48915719,27.2516526 C4.81485974,29.1474317 6.36395415,31.2641612 8.39157102,31.1896972 C10.375242,31.1079089 11.1162193,29.9250307 13.5100524,29.9250307 C15.8819125,29.9250307 16.5777232,31.1896972 18.6456238,31.1420891 C20.7745605,31.1079089 22.1149117,29.237765 23.3942269,27.3248959 C24.9262312,25.1520132 25.5414744,23.0120901 25.5658888,22.9022252 C25.5158392,22.8851351 21.4313082,21.326275 21.3910244,16.6106314 C21.3556235,12.676249 24.612506,10.7621591 24.7614339,10.6730465 Z" id="Shape"></path>
                        <path d="M17.4847186,5.04064179 C18.5516284,3.70639421 19.2816193,1.89118271 19.0789796,0.0491153661 C17.5347681,0.117475718 15.6035882,1.11724587 14.4915117,2.42219616 C13.5076109,3.57211494 12.6286921,5.45690751 12.8557462,7.22939378 C14.5903901,7.35879016 16.3714214,6.35413713 17.4847186,5.04064179 L17.4847186,5.04064179 Z" id="Shape"></path>
                        <path d="M50.0987101,30.9174765 L47.3264537,30.9174765 L45.8078773,26.1456798 L40.5294816,26.1456798 L39.0829277,30.9174765 L36.3839145,30.9174765 L41.6134814,14.6721271 L44.8435081,14.6721271 L50.0987101,30.9174765 L50.0987101,30.9174765 Z M45.3501071,24.1436981 L43.9767965,19.9016941 C43.8315307,19.4683383 43.55931,18.4478159 43.157693,16.8413476 L43.1088641,16.8413476 C42.9489497,17.5322754 42.6913777,18.5527978 42.3373687,19.9016941 L40.9884725,24.1436981 L45.3501071,24.1436981 L45.3501071,24.1436981 Z" id="Shape"></path>
                        <path d="M63.5473887,24.9164142 C63.5473887,26.9086302 63.0090509,28.4833597 61.9323754,29.6393821 C60.9680061,30.6684495 59.7704793,31.1823729 58.3410155,31.1823729 C56.7980247,31.1823729 55.6896104,30.6281657 55.0145519,29.5197515 L54.9657231,29.5197515 L54.9657231,35.690494 L52.3631468,35.690494 L52.3631468,23.0596982 C52.3631468,21.8072389 52.3301874,20.5218201 52.2667099,19.2034419 L54.555561,19.2034419 L54.7008267,21.0601579 L54.7496555,21.0601579 C55.6175879,19.6612121 56.9347454,18.9629599 58.7023488,18.9629599 C60.0842044,18.9629599 61.2377854,19.508622 62.1606501,20.6011669 C63.0859563,21.6949326 63.5473887,23.1329414 63.5473887,24.9164142 L63.5473887,24.9164142 Z M60.8959836,25.0116304 C60.8959836,23.8714774 60.6396323,22.9315225 60.1244882,22.1917659 C59.561736,21.4202705 58.80611,21.0345228 57.8588308,21.0345228 C57.2167318,21.0345228 56.6332274,21.2493696 56.1119797,21.6729596 C55.5895113,22.1002118 55.2477095,22.6580811 55.0877951,23.349009 C55.0072276,23.6712792 54.9669438,23.9349548 54.9669438,24.1424773 L54.9669438,26.0956303 C54.9669438,26.9476932 55.228178,27.6666976 55.7506464,28.2538642 C56.2731148,28.8410308 56.9518354,29.1340038 57.7868083,29.1340038 C58.7670469,29.1340038 59.5299973,28.7555804 60.0756594,28.0011751 C60.6225422,27.245549 60.8959836,26.249441 60.8959836,25.0116304 L60.8959836,25.0116304 Z" id="Shape"></path>
                        <path d="M77.0204817,24.9164142 C77.0204817,26.9086302 76.4821439,28.4833597 75.4042476,29.6393821 C74.4410991,30.6684495 73.2435722,31.1823729 71.8141084,31.1823729 C70.2711176,31.1823729 69.1627033,30.6281657 68.4888656,29.5197515 L68.4400368,29.5197515 L68.4400368,35.690494 L65.8374605,35.690494 L65.8374605,23.0596982 C65.8374605,21.8072389 65.8045011,20.5218201 65.7410236,19.2034419 L68.0298747,19.2034419 L68.1751404,21.0601579 L68.2239692,21.0601579 C69.0906808,19.6612121 70.4078383,18.9629599 72.1766624,18.9629599 C73.5572974,18.9629599 74.7108784,19.508622 75.6361846,20.6011669 C76.5578286,21.6949326 77.0204817,23.1329414 77.0204817,24.9164142 L77.0204817,24.9164142 Z M74.3690766,25.0116304 C74.3690766,23.8714774 74.1115046,22.9315225 73.5963605,22.1917659 C73.0336083,21.4202705 72.2804237,21.0345228 71.3319238,21.0345228 C70.6886041,21.0345228 70.1063204,21.2493696 69.5838519,21.6729596 C69.0613835,22.1002118 68.7208025,22.6580811 68.5608881,23.349009 C68.4815413,23.6712792 68.4400368,23.9349548 68.4400368,24.1424773 L68.4400368,26.0956303 C68.4400368,26.9476932 68.701271,27.6666976 69.2212979,28.2538642 C69.7437663,28.8398101 70.422487,29.1340038 71.2599013,29.1340038 C72.2401399,29.1340038 73.0030903,28.7555804 73.5487524,28.0011751 C74.0956352,27.245549 74.3690766,26.249441 74.3690766,25.0116304 L74.3690766,25.0116304 Z" id="Shape"></path>
                        <path d="M92.0841736,26.3617473 C92.0841736,27.743603 91.6044304,28.8678867 90.6412818,29.735819 C89.5829171,30.6843189 88.1095074,31.1579585 86.2161698,31.1579585 C84.4680979,31.1579585 83.0667107,30.8210396 82.0059045,30.1459811 L82.6089405,27.9767607 C83.7515349,28.6676885 85.005215,29.0143731 86.3712013,29.0143731 C87.3514399,29.0143731 88.1143903,28.792202 88.6624938,28.3503012 C89.2081559,27.9084003 89.4803766,27.3151301 89.4803766,26.5753734 C89.4803766,25.9161843 89.255764,25.3607565 88.8053181,24.9103106 C88.3573137,24.4598647 87.6090119,24.0411575 86.5640751,23.6541891 C83.7197962,22.5933829 82.2988774,21.0394056 82.2988774,18.9959194 C82.2988774,17.6604511 82.7969314,16.5654647 83.7942601,15.7134018 C84.7879267,14.8601181 86.1136292,14.4340866 87.7713678,14.4340866 C89.2496604,14.4340866 90.4777053,14.6916586 91.4579439,15.205582 L90.8072998,17.3271944 C89.8917594,16.8291404 88.8565884,16.5801134 87.6981245,16.5801134 C86.7825841,16.5801134 86.0672419,16.8059467 85.5545392,17.2551719 C85.1211834,17.6567889 84.9038951,18.1462979 84.9038951,18.7261401 C84.9038951,19.3682392 85.1517014,19.8992526 85.6497554,20.3167391 C86.0831112,20.7024868 86.870476,21.1199732 88.0130705,21.5704191 C89.4107955,22.1331713 90.4374215,22.7911397 91.0978313,23.545545 C91.7557997,24.2975088 92.0841736,25.2386844 92.0841736,26.3617473 L92.0841736,26.3617473 Z" id="Shape"></path>
                        <path d="M100.689033,21.1565948 L97.8203395,21.1565948 L97.8203395,26.843932 C97.8203395,28.2904858 98.3257179,29.0131524 99.3389159,29.0131524 C99.8040105,29.0131524 100.189758,28.9728686 100.494938,28.8923011 L100.566961,30.8686477 C100.054258,31.0603008 99.3791997,31.1567378 98.5430061,31.1567378 C97.5151594,31.1567378 96.7119253,30.8430126 96.132083,30.2167829 C95.5546822,29.5893325 95.2641507,28.5370714 95.2641507,27.0587788 L95.2641507,21.1541534 L93.5551419,21.1541534 L93.5551419,19.2010004 L95.2641507,19.2010004 L95.2641507,17.0561944 L97.8203395,16.284699 L97.8203395,19.2010004 L100.689033,19.2010004 L100.689033,21.1565948 L100.689033,21.1565948 Z" id="Shape"></path>
                        <path d="M113.632333,24.9640223 C113.632333,26.7645851 113.117189,28.2428777 112.089342,29.3989001 C111.011446,30.5891027 109.580762,31.1823729 107.797289,31.1823729 C106.078514,31.1823729 104.710086,30.6122964 103.689564,29.4721434 C102.669042,28.3319903 102.15878,26.8927608 102.15878,25.1581169 C102.15878,23.3429054 102.68369,21.8560677 103.737172,20.7000453 C104.788213,19.5428022 106.20669,18.9641807 107.990163,18.9641807 C109.708937,18.9641807 111.092014,19.5342572 112.13573,20.6756309 C113.134279,21.7828245 113.632333,23.2122883 113.632333,24.9640223 L113.632333,24.9640223 Z M110.932099,25.048252 C110.932099,23.9679143 110.701383,23.0413874 110.233847,22.2686713 C109.688185,21.3335993 108.908145,20.867284 107.897388,20.867284 C106.85123,20.867284 106.056541,21.33482 105.510879,22.2686713 C105.043343,23.0426081 104.812627,23.9837837 104.812627,25.0970808 C104.812627,26.1774185 105.043343,27.1039454 105.510879,27.8754408 C106.073631,28.8105128 106.859775,29.2768281 107.874194,29.2768281 C108.867861,29.2768281 109.647901,28.800747 110.210653,27.8510264 C110.690397,27.0636617 110.932099,26.127369 110.932099,25.048252 L110.932099,25.048252 Z" id="Shape"></path>
                        <path d="M122.091927,21.492293 C121.834355,21.4446849 121.559693,21.4202705 121.271602,21.4202705 C120.356062,21.4202705 119.648044,21.7657344 119.14999,22.4578829 C118.716634,23.0682432 118.499346,23.8397386 118.499346,24.7711484 L118.499346,30.9174765 L115.897991,30.9174765 L115.922405,22.8924595 C115.922405,21.5423425 115.889445,20.3130769 115.824747,19.2046626 L118.091625,19.2046626 L118.186842,21.4459056 L118.258864,21.4459056 C118.533526,20.6756309 118.966882,20.0555049 119.560152,19.5904103 C120.139995,19.1717032 120.766224,18.9629599 121.441283,18.9629599 C121.681765,18.9629599 121.899053,18.98005 122.091927,19.010568 L122.091927,21.492293 L122.091927,21.492293 Z" id="Shape"></path>
                        <path d="M133.731497,24.5062521 C133.731497,24.9725673 133.700979,25.3656393 133.636281,25.6866889 L125.828552,25.6866889 C125.85907,26.843932 126.236273,27.7289544 126.961381,28.3393147 C127.619349,28.8849768 128.470192,29.1584182 129.515129,29.1584182 C130.671151,29.1584182 131.725853,28.9740894 132.674353,28.604211 L133.082074,30.4108775 C131.97366,30.8942828 130.665047,31.1347648 129.155016,31.1347648 C127.338584,31.1347648 125.912782,30.6000892 124.87517,29.5319587 C123.839999,28.4638282 123.321192,27.0294815 123.321192,25.2301394 C123.321192,23.4637567 123.803377,21.9927884 124.768967,20.8196759 C125.779724,19.5672166 127.14571,18.940987 128.864484,18.940987 C130.552741,18.940987 131.830835,19.5672166 132.698768,20.8196759 C133.386033,21.8145632 133.731497,23.0450495 133.731497,24.5062521 L133.731497,24.5062521 Z M131.249772,23.8311936 C131.266863,23.0596982 131.097182,22.3931848 130.744394,21.8304326 C130.293948,21.1065453 129.6018,20.745212 128.67039,20.745212 C127.819548,20.745212 127.127399,21.0980002 126.598827,21.8060182 C126.165471,22.3687703 125.907899,23.0438288 125.828552,23.8299729 L131.249772,23.8299729 L131.249772,23.8311936 Z" id="Shape"></path>
                        <path d="M44.4894991,4.67808778 C44.4894991,6.1148759 44.0585847,7.19643433 43.1979767,7.92276307 C42.4008462,8.59293866 41.2680175,8.92863682 39.8007114,8.92863682 C39.0731619,8.92863682 38.4505944,8.89689809 37.9293467,8.83342062 L37.9293467,0.982966605 C38.6092881,0.873101754 39.3417205,0.816948607 40.1327474,0.816948607 C41.5304724,0.816948607 42.5839543,1.12090803 43.2944137,1.72882688 C44.0903235,2.41609256 44.4894991,3.39877262 44.4894991,4.67808778 L44.4894991,4.67808778 Z M43.1406029,4.71348868 C43.1406029,3.78207888 42.8940173,3.06795735 42.4008462,2.56990335 C41.9076751,2.07307008 41.18745,1.82404308 40.2389501,1.82404308 C39.8361123,1.82404308 39.4930898,1.85089893 39.2086619,1.90705208 L39.2086619,7.87515497 C39.3661349,7.89956938 39.6542249,7.91055586 40.0729321,7.91055586 C41.05195,7.91055586 41.807576,7.63833517 42.3398102,7.0938938 C42.8720443,6.54945242 43.1406029,5.75598405 43.1406029,4.71348868 L43.1406029,4.71348868 Z" id="Shape"></path>
                        <path d="M51.641701,5.93298853 C51.641701,6.81801095 51.3890118,7.54311897 50.8836335,8.11197476 C50.3538407,8.69669991 49.6519264,8.98845213 48.775449,8.98845213 C47.9307104,8.98845213 47.2580934,8.70890712 46.7563772,8.14737565 C46.2558818,7.58706491 46.0056341,6.8802677 46.0056341,6.02820474 C46.0056341,5.13707872 46.2632061,4.40586709 46.7807916,3.83823203 C47.2983772,3.27059696 47.9941879,2.98616907 48.8706652,2.98616907 C49.7154039,2.98616907 50.3941245,3.26571408 50.9080479,3.82602482 C51.3963361,4.3704662 51.641701,5.07360125 51.641701,5.93298853 L51.641701,5.93298853 Z M50.3147777,5.97449303 C50.3147777,5.44347958 50.20003,4.98815081 49.9717552,4.60850671 C49.7031967,4.14951577 49.3211111,3.92002031 48.8242779,3.92002031 C48.3103545,3.92002031 47.9197239,4.14951577 47.6511654,4.60850671 C47.4216699,4.98815081 47.3081429,5.45080391 47.3081429,5.99768672 C47.3081429,6.52870017 47.4228906,6.98402895 47.6511654,7.36367304 C47.928269,7.82266398 48.3140167,8.05215945 48.8120707,8.05215945 C49.3003589,8.05215945 49.6836652,7.81900182 49.959548,7.35146584 C50.1963678,6.96449742 50.3147777,6.50550648 50.3147777,5.97449303 L50.3147777,5.97449303 Z" id="Shape"></path>
                        <path d="M61.2316818,3.10335824 L59.4311189,8.85783503 L58.2592272,8.85783503 L57.5133669,6.35902001 C57.3241552,5.7352318 57.1703444,5.11510575 57.0507138,4.49986258 L57.0275201,4.49986258 C56.9164346,5.13219584 56.7626238,5.75110117 56.564867,6.35902001 L55.7726194,8.85783503 L54.5872997,8.85783503 L52.8941603,3.10335824 L54.2088763,3.10335824 L54.8595204,5.83899305 C55.0169933,6.48597495 55.1463897,7.10243884 55.250151,7.68594328 L55.2733447,7.68594328 C55.3685609,7.20497937 55.5260338,6.59217764 55.748205,5.85120025 L56.564867,3.10457896 L57.6073624,3.10457896 L58.3898443,5.79260567 C58.579056,6.44813261 58.7328668,7.07924515 58.8512767,7.687164 L58.8866776,7.687164 C58.9733487,7.09511452 59.1039658,6.46400198 59.2773081,5.79260567 L59.9755603,3.10457896 L61.2316818,3.10457896 L61.2316818,3.10335824 Z" id="Shape"></path>
                        <path d="M67.8638567,8.85783503 L66.5845415,8.85783503 L66.5845415,5.56188948 C66.5845415,4.54624996 66.1987938,4.0384302 65.424857,4.0384302 C65.0452129,4.0384302 64.738812,4.17759235 64.5007715,4.45713736 C64.2651724,4.73668237 64.1455418,5.06627692 64.1455418,5.44347958 L64.1455418,8.85661431 L62.8662266,8.85661431 L62.8662266,4.74766886 C62.8662266,4.24229054 62.8503573,3.694187 62.8198392,3.1009168 L63.9441229,3.1009168 L64.0039382,4.00058786 L64.0393391,4.00058786 C64.188267,3.72104285 64.4104382,3.49032666 64.7021904,3.30599786 C65.048875,3.09115104 65.4370642,2.98250691 65.8618749,2.98250691 C66.398992,2.98250691 66.8457757,3.15584923 67.2010054,3.50375459 C67.6429062,3.92978607 67.8638567,4.56578149 67.8638567,5.41052013 L67.8638567,8.85783503 L67.8638567,8.85783503 Z" id="Shape"></path>
                        <path d="M71.3917391,8.85783503 L70.1136447,8.85783503 L70.1136447,0.462939641 L71.3917391,0.462939641 L71.3917391,8.85783503 L71.3917391,8.85783503 Z" id="Shape"></path>
                        <path d="M78.9235851,5.93298853 C78.9235851,6.81801095 78.6708959,7.54311897 78.1655176,8.11197476 C77.6357249,8.69669991 76.9325898,8.98845213 76.0573332,8.98845213 C75.2113738,8.98845213 74.5387568,8.70890712 74.0382613,8.14737565 C73.5377659,7.58706491 73.2875182,6.8802677 73.2875182,6.02820474 C73.2875182,5.13707872 73.5450902,4.40586709 74.0626757,3.83823203 C74.5802613,3.27059696 75.276072,2.98616907 76.1513286,2.98616907 C76.997288,2.98616907 77.6747879,3.26571408 78.189932,3.82602482 C78.6782202,4.3704662 78.9235851,5.07360125 78.9235851,5.93298853 L78.9235851,5.93298853 Z M77.5954411,5.97449303 C77.5954411,5.44347958 77.4806933,4.98815081 77.2524186,4.60850671 C76.9850808,4.14951577 76.6017745,3.92002031 76.106162,3.92002031 C75.5910179,3.92002031 75.2003873,4.14951577 74.9330495,4.60850671 C74.703554,4.98815081 74.590027,5.45080391 74.590027,5.99768672 C74.590027,6.52870017 74.7047748,6.98402895 74.9330495,7.36367304 C75.2101531,7.82266398 75.5959008,8.05215945 76.0939548,8.05215945 C76.582243,8.05215945 76.9643285,7.81900182 77.2402114,7.35146584 C77.4782519,6.96449742 77.5954411,6.50550648 77.5954411,5.97449303 L77.5954411,5.97449303 Z" id="Shape"></path>
                        <path d="M85.1150798,8.85783503 L83.9663817,8.85783503 L83.8711655,8.19498376 L83.8357646,8.19498376 C83.4426926,8.72355576 82.8823819,8.98845213 82.1548324,8.98845213 C81.6116118,8.98845213 81.1721524,8.81388909 80.8413371,8.46720444 C80.5410398,8.15225854 80.3908912,7.76040723 80.3908912,7.29531269 C80.3908912,6.59217764 80.6838641,6.05628131 81.2734722,5.68518226 C81.8618595,5.3140832 82.689508,5.13219584 83.7551971,5.14074088 L83.7551971,5.03331747 C83.7551971,4.27524999 83.3572422,3.89682662 82.5601116,3.89682662 C81.9924766,3.89682662 81.4919811,4.03965092 81.0598461,4.3228581 L80.7998326,3.48300234 C81.3345082,3.15218706 81.994918,2.98616907 82.7737377,2.98616907 C84.2776655,2.98616907 85.0320708,3.77963744 85.0320708,5.36657419 L85.0320708,7.4857451 C85.0320708,8.06070449 85.0601474,8.51847471 85.1150798,8.85783503 L85.1150798,8.85783503 Z M83.7869358,6.8802677 L83.7869358,5.99280384 C82.3757828,5.96838943 81.6702063,6.35535785 81.6702063,7.15248839 C81.6702063,7.45278565 81.7507739,7.67739823 81.9155712,7.82754686 C82.0803685,7.97769549 82.2903324,8.05215945 82.5405801,8.05215945 C82.8213459,8.05215945 83.0838008,7.96304685 83.323062,7.78604236 C83.563544,7.60781716 83.7112511,7.38198385 83.7661836,7.10488028 C83.7796115,7.04262353 83.7869358,6.96693886 83.7869358,6.8802677 L83.7869358,6.8802677 Z" id="Shape"></path>
                        <path d="M92.3844708,8.85783503 L91.2492007,8.85783503 L91.1893854,7.93374955 L91.1539845,7.93374955 C90.7914305,8.6368846 90.1737459,8.98845213 89.3058135,8.98845213 C88.6124443,8.98845213 88.0350434,8.71623144 87.5772732,8.17179006 C87.119503,7.62734869 86.8912282,6.92055148 86.8912282,6.05261915 C86.8912282,5.12120935 87.1390345,4.36680404 87.6370885,3.79062393 C88.1192731,3.25350687 88.7101019,2.98494835 89.4132369,2.98494835 C90.1859531,2.98494835 90.7267323,3.24496183 91.0343539,3.76620951 L91.0587683,3.76620951 L91.0587683,0.462939641 L92.3393042,0.462939641 L92.3393042,7.3075199 C92.3393042,7.86783064 92.3539528,8.38419544 92.3844708,8.85783503 L92.3844708,8.85783503 Z M91.0587683,6.43104253 L91.0587683,5.47155616 C91.0587683,5.30553816 91.0465611,5.17125889 91.0233674,5.06871837 C90.9513449,4.76109678 90.7963134,4.50230402 90.5607143,4.2935608 C90.3226738,4.08481758 90.0358044,3.97983561 89.7049892,3.97983561 C89.2276874,3.97983561 88.8541469,4.1690473 88.5794848,4.5486914 C88.3072641,4.9283355 88.1693227,5.41296157 88.1693227,6.00501105 C88.1693227,6.57386683 88.2999398,7.03529921 88.5623947,7.3905289 C88.8394983,7.76895228 89.2130388,7.95816396 89.6805748,7.95816396 C90.1005026,7.95816396 90.4362008,7.80069101 90.6913314,7.48452438 C90.9379169,7.19277216 91.0587683,6.84120464 91.0587683,6.43104253 L91.0587683,6.43104253 Z" id="Shape"></path>
                        <path d="M103.325789,5.93298853 C103.325789,6.81801095 103.0731,7.54311897 102.567722,8.11197476 C102.037929,8.69669991 101.337236,8.98845213 100.459537,8.98845213 C99.6160195,8.98845213 98.9434025,8.70890712 98.4404656,8.14737565 C97.9399702,7.58706491 97.6897224,6.8802677 97.6897224,6.02820474 C97.6897224,5.13707872 97.9472945,4.40586709 98.46488,3.83823203 C98.9824655,3.27059696 99.6782763,2.98616907 100.555974,2.98616907 C101.399492,2.98616907 102.079434,3.26571408 102.592136,3.82602482 C103.080424,4.3704662 103.325789,5.07360125 103.325789,5.93298853 L103.325789,5.93298853 Z M102.000087,5.97449303 C102.000087,5.44347958 101.885339,4.98815081 101.657064,4.60850671 C101.387285,4.14951577 101.00642,3.92002031 100.508366,3.92002031 C99.9956636,3.92002031 99.605033,4.14951577 99.3352538,4.60850671 C99.1057583,4.98815081 98.9922313,5.45080391 98.9922313,5.99768672 C98.9922313,6.52870017 99.106979,6.98402895 99.3352538,7.36367304 C99.6123573,7.82266398 99.998105,8.05215945 100.496159,8.05215945 C100.984447,8.05215945 101.368974,7.81900182 101.644857,7.35146584 C101.880456,6.96449742 102.000087,6.50550648 102.000087,5.97449303 L102.000087,5.97449303 Z" id="Shape"></path>
                        <path d="M110.20455,8.85783503 L108.926455,8.85783503 L108.926455,5.56188948 C108.926455,4.54624996 108.540708,4.0384302 107.76555,4.0384302 C107.385906,4.0384302 107.079505,4.17759235 106.842685,4.45713736 C106.605866,4.73668237 106.487456,5.06627692 106.487456,5.44347958 L106.487456,8.85661431 L105.20692,8.85661431 L105.20692,4.74766886 C105.20692,4.24229054 105.192271,3.694187 105.161753,3.1009168 L106.284816,3.1009168 L106.344631,4.00058786 L106.380032,4.00058786 C106.530181,3.72104285 106.752352,3.49032666 107.042883,3.30599786 C107.390789,3.09115104 107.777757,2.98250691 108.203789,2.98250691 C108.739685,2.98250691 109.186469,3.15584923 109.541698,3.50375459 C109.98482,3.92978607 110.20455,4.56578149 110.20455,5.41052013 L110.20455,8.85783503 L110.20455,8.85783503 Z" id="Shape"></path>
                        <path d="M118.814292,4.06162389 L117.40558,4.06162389 L117.40558,6.85707401 C117.40558,7.56753338 117.655828,7.92276307 118.151441,7.92276307 C118.380936,7.92276307 118.571369,7.90323154 118.721517,7.86294776 L118.754477,8.83342062 C118.501788,8.92863682 118.169752,8.97624492 117.76081,8.97624492 C117.255432,8.97624492 116.86236,8.82243413 116.577932,8.51481255 C116.292283,8.20719096 116.15068,7.68960544 116.15068,6.9632767 L116.15068,4.06162389 L115.309603,4.06162389 L115.309603,3.10335824 L116.15068,3.10335824 L116.15068,2.04865567 L117.40436,1.67023229 L117.40436,3.10213752 L118.813071,3.10213752 L118.813071,4.06162389 L118.814292,4.06162389 Z" id="Shape"></path>
                        <path d="M125.58685,8.85783503 L124.306314,8.85783503 L124.306314,5.58630389 C124.306314,4.554795 123.920566,4.0384302 123.14785,4.0384302 C122.55458,4.0384302 122.149301,4.33750674 121.927129,4.93565982 C121.889287,5.06139404 121.867314,5.21520483 121.867314,5.39587148 L121.867314,8.85661431 L120.58922,8.85661431 L120.58922,0.462939641 L121.867314,0.462939641 L121.867314,3.93100679 L121.891729,3.93100679 C122.294566,3.29989425 122.871967,2.98494835 123.620269,2.98494835 C124.150062,2.98494835 124.5883,3.15829067 124.936206,3.50619603 C125.369561,3.93955184 125.58685,4.5840923 125.58685,5.43615526 L125.58685,8.85783503 L125.58685,8.85783503 Z" id="Shape"></path>
                        <path d="M132.573034,5.70837595 C132.573034,5.93787141 132.555943,6.13074527 132.525425,6.28821822 L128.688701,6.28821822 C128.705791,6.85707401 128.888899,7.29042981 129.244129,7.59072707 C129.56884,7.8592856 129.987547,7.99356486 130.50025,7.99356486 C131.067885,7.99356486 131.585471,7.90323154 132.051786,7.72134417 L132.251984,8.61002875 C131.706322,8.84684854 131.064223,8.96525844 130.320804,8.96525844 C129.429678,8.96525844 128.727764,8.70280351 128.219944,8.17789367 C127.709683,7.65298382 127.456994,6.94862805 127.456994,6.06482635 C127.456994,5.19689403 127.692593,4.47422745 128.167453,3.89804734 C128.663066,3.28280417 129.333241,2.97518258 130.179201,2.97518258 C131.006849,2.97518258 131.63552,3.28280417 132.060331,3.89804734 C132.403353,4.38633557 132.573034,4.99059225 132.573034,5.70837595 L132.573034,5.70837595 Z M131.352313,5.37756067 C131.362079,4.99791657 131.277849,4.67076346 131.104507,4.39488061 C130.882336,4.03965092 130.544196,3.86142572 130.086426,3.86142572 C129.668939,3.86142572 129.328358,4.03476804 129.068345,4.3826734 C128.855939,4.65977697 128.730205,4.99059225 128.688701,5.37756067 L131.352313,5.37756067 L131.352313,5.37756067 Z" id="Shape"></path>
                    </g>
                </g>
            </g>
        </g>
    </g>
</svg>