<?xml version="1.0" encoding="UTF-8" standalone="no"?>
<svg width="106px" height="36px" viewBox="0 0 106 36" version="1.1" xmlns="http://www.w3.org/2000/svg" xmlns:xlink="http://www.w3.org/1999/xlink">
    <!-- Generator: Sketch 3.8.3 (29802) - http://www.bohemiancoding.com/sketch -->
    <title>Group 13</title>
    <desc>Created with Sketch.</desc>
    <defs></defs>
    <g id="ボタンデザイン" stroke="none" stroke-width="1" fill="none" fill-rule="evenodd">
        <g id="parts" transform="translate(-2474.000000, -1330.000000)">
            <g id="Group-13" transform="translate(2474.000000, 1330.000000)">
                <rect id="Rectangle-171" fill="#7E7E7E" x="0" y="0" width="106" height="36" rx="3"></rect>
                <g id="Group-12" transform="translate(10.000000, 10.000000)" fill="#FFFFFF">
                    <path d="M36.816,4.132 C36.444,4.228 36.204,4.252 35.532,4.252 L30.024,4.252 C29.208,4.252 28.956,4.24 28.488,4.168 L28.488,5.728 C28.92,5.668 29.196,5.656 30,5.656 L35.712,5.656 C35.124,7.984 33.948,9.676 32.076,10.888 C31.188,11.464 30.504,11.776 29.448,12.112 C30.012,12.664 30.168,12.892 30.504,13.54 C32.508,12.676 33.792,11.8 34.968,10.48 C36.12,9.184 36.828,7.744 37.428,5.452 C37.488,5.2 37.524,5.116 37.632,4.912 L36.816,4.132 Z M44.808,8.128 C44.436,8.74 43.788,9.472 43.056,10.096 C42.288,10.756 41.436,11.284 40.476,11.716 C40.932,12.148 41.076,12.328 41.364,12.844 C43.08,11.92 44.436,10.816 45.252,9.676 C45.42,9.436 45.492,9.328 45.66,9.004 C45.66,9.148 45.648,9.616 45.648,9.748 L45.66,12.748 C45.66,13.18 45.648,13.444 45.612,13.732 L47.076,13.732 C47.028,13.444 47.004,13.204 47.004,12.712 L46.944,8.14 L47.976,8.14 C48.504,8.14 48.744,8.152 49.068,8.188 L49.068,6.892 C48.756,6.952 48.516,6.964 47.988,6.964 L46.944,6.964 L46.932,6.172 C46.932,5.632 46.932,5.548 46.968,5.272 L45.564,5.272 C45.6,5.524 45.624,5.788 45.624,6.22 L45.624,6.952 L42.132,6.952 C41.592,6.952 41.376,6.94 41.052,6.88 L41.052,8.176 C41.388,8.14 41.64,8.128 42.132,8.128 L44.808,8.128 Z M59.892,12.304 L59.892,13.132 L61.44,13.132 C61.404,12.856 61.392,12.532 61.392,12.088 L61.392,5.224 C61.392,4.78 61.404,4.54 61.428,4.228 C61.152,4.252 60.936,4.264 60.42,4.264 L53.604,4.264 C53.124,4.264 52.872,4.252 52.584,4.228 C52.62,4.552 52.632,4.78 52.632,5.236 L52.632,12.112 C52.632,12.568 52.62,12.856 52.584,13.144 L54.132,13.144 L54.132,12.304 L59.892,12.304 Z M59.892,10.936 L54.132,10.936 L54.132,5.62 L59.892,5.62 L59.892,10.936 Z M63.852,9.232 C64.332,9.172 64.464,9.172 65.808,9.172 L72.18,9.172 C73.524,9.172 73.656,9.172 74.136,9.232 L74.136,7.564 C73.608,7.636 73.38,7.648 72.192,7.648 L65.796,7.648 C64.608,7.648 64.38,7.636 63.852,7.564 L63.852,9.232 Z M80.244,4.936 L77.088,4.936 C76.608,4.936 76.356,4.924 76.008,4.888 C76.044,5.272 76.056,5.488 76.056,5.932 L76.056,9.604 C76.056,10.108 76.044,10.408 75.996,10.804 L77.412,10.804 L77.412,10.084 L80.244,10.084 L80.244,12.52 C80.244,13.192 80.22,13.564 80.16,14.008 L81.696,14.008 C81.636,13.588 81.612,13.24 81.612,12.52 L81.612,10.084 L84.588,10.084 L84.588,10.804 L86.004,10.804 C85.956,10.456 85.944,10.144 85.944,9.604 L85.944,5.944 C85.944,5.476 85.956,5.224 85.992,4.888 C85.68,4.924 85.428,4.936 84.9,4.936 L81.612,4.936 L81.612,4.156 C81.612,3.58 81.636,3.268 81.684,2.896 L80.172,2.896 C80.232,3.292 80.244,3.58 80.244,4.204 L80.244,4.936 Z M80.244,6.208 L80.244,8.812 L77.412,8.812 L77.412,6.208 L80.244,6.208 Z M81.612,8.812 L81.612,6.208 L84.588,6.208 L84.588,8.812 L81.612,8.812 Z" id="フォロー中"></path>
                    <path d="M2.896,4.209 L1.132,2.396 L0,3.497 L2.896,6.474 L8.124,1.101 L6.992,0 L2.896,4.209 Z M15.415,9.928 C11.663,9.928 8.622,12.845 8.622,14.702 C8.622,15.975 11.663,16.86 15.415,16.86 C19.166,16.86 22.207,15.975 22.207,14.702 C22.207,12.845 19.166,9.928 15.415,9.928 L15.415,9.928 Z M15.311,9.064 C17.604,9.064 19.463,7.136 19.463,4.755 C19.463,2.377 17.604,0.448 15.311,0.448 C13.017,0.448 11.158,2.377 11.158,4.755 C11.158,7.136 13.017,9.064 15.311,9.064 L15.311,9.064 Z" id="Fill-1"></path>
                </g>
            </g>
        </g>
    </g>
</svg>