<?xml version="1.0" encoding="UTF-8" standalone="no"?>
<svg width="106px" height="36px" viewBox="0 0 106 36" version="1.1" xmlns="http://www.w3.org/2000/svg" xmlns:xlink="http://www.w3.org/1999/xlink">
    <!-- Generator: Sketch 3.8.3 (29802) - http://www.bohemiancoding.com/sketch -->
    <title>Group 13</title>
    <desc>Created with Sketch.</desc>
    <defs></defs>
    <g id="ボタンデザイン" stroke="none" stroke-width="1" fill="none" fill-rule="evenodd">
        <g id="parts" transform="translate(-204.000000, -1330.000000)">
            <g id="Group-13" transform="translate(204.000000, 1330.000000)">
                <rect id="Rectangle-171" fill="#EEEEEE" x="0" y="0" width="106" height="36" rx="3"></rect>
                <g id="Group-12" transform="translate(12.000000, 9.000000)" fill="#7E7E7E">
                    <path d="M37.816,5.132 C37.444,5.228 37.204,5.252 36.532,5.252 L31.024,5.252 C30.208,5.252 29.956,5.24 29.488,5.168 L29.488,6.728 C29.92,6.668 30.196,6.656 31,6.656 L36.712,6.656 C36.124,8.984 34.948,10.676 33.076,11.888 C32.188,12.464 31.504,12.776 30.448,13.112 C31.012,13.664 31.168,13.892 31.504,14.54 C33.508,13.676 34.792,12.8 35.968,11.48 C37.12,10.184 37.828,8.744 38.428,6.452 C38.488,6.2 38.524,6.116 38.632,5.912 L37.816,5.132 Z M45.808,9.128 C45.436,9.74 44.788,10.472 44.056,11.096 C43.288,11.756 42.436,12.284 41.476,12.716 C41.932,13.148 42.076,13.328 42.364,13.844 C44.08,12.92 45.436,11.816 46.252,10.676 C46.42,10.436 46.492,10.328 46.66,10.004 C46.66,10.148 46.648,10.616 46.648,10.748 L46.66,13.748 C46.66,14.18 46.648,14.444 46.612,14.732 L48.076,14.732 C48.028,14.444 48.004,14.204 48.004,13.712 L47.944,9.14 L48.976,9.14 C49.504,9.14 49.744,9.152 50.068,9.188 L50.068,7.892 C49.756,7.952 49.516,7.964 48.988,7.964 L47.944,7.964 L47.932,7.172 C47.932,6.632 47.932,6.548 47.968,6.272 L46.564,6.272 C46.6,6.524 46.624,6.788 46.624,7.22 L46.624,7.952 L43.132,7.952 C42.592,7.952 42.376,7.94 42.052,7.88 L42.052,9.176 C42.388,9.14 42.64,9.128 43.132,9.128 L45.808,9.128 Z M60.892,13.304 L60.892,14.132 L62.44,14.132 C62.404,13.856 62.392,13.532 62.392,13.088 L62.392,6.224 C62.392,5.78 62.404,5.54 62.428,5.228 C62.152,5.252 61.936,5.264 61.42,5.264 L54.604,5.264 C54.124,5.264 53.872,5.252 53.584,5.228 C53.62,5.552 53.632,5.78 53.632,6.236 L53.632,13.112 C53.632,13.568 53.62,13.856 53.584,14.144 L55.132,14.144 L55.132,13.304 L60.892,13.304 Z M60.892,11.936 L55.132,11.936 L55.132,6.62 L60.892,6.62 L60.892,11.936 Z M64.852,10.232 C65.332,10.172 65.464,10.172 66.808,10.172 L73.18,10.172 C74.524,10.172 74.656,10.172 75.136,10.232 L75.136,8.564 C74.608,8.636 74.38,8.648 73.192,8.648 L66.796,8.648 C65.608,8.648 65.38,8.636 64.852,8.564 L64.852,10.232 Z" id="フォロー中"></path>
                    <path d="M16.205,11.065 C12.453,11.065 9.412,13.983 9.412,15.84 C9.412,17.112 12.453,17.997 16.205,17.997 C19.957,17.997 22.997,17.112 22.997,15.84 C22.997,13.983 19.957,11.065 16.205,11.065 L16.205,11.065 Z M9.932,4.236 L5.75,4.236 L5.75,0 L4.182,0 L4.182,4.236 L0,4.236 L0,5.823 L4.182,5.823 L4.182,10.059 L5.75,10.059 L5.75,5.823 L9.932,5.823 L9.932,4.236 Z M16.101,10.202 C18.394,10.202 20.253,8.273 20.253,5.893 C20.253,3.515 18.394,1.585 16.101,1.585 C13.808,1.585 11.948,3.515 11.948,5.893 C11.948,8.273 13.808,10.202 16.101,10.202 L16.101,10.202 Z" id="Fill-1"></path>
                </g>
            </g>
        </g>
    </g>
</svg>