<?xml version="1.0" encoding="UTF-8" standalone="no"?>
<svg width="57px" height="57px" viewBox="0 0 57 57" version="1.1" xmlns="http://www.w3.org/2000/svg" xmlns:xlink="http://www.w3.org/1999/xlink">
    <!-- Generator: Sketch 3.6.1 (26313) - http://www.bohemiancoding.com/sketch -->
    <title>FilmarksIcon</title>
    <desc>Created with Sketch.</desc>
    <defs>
        <path id="path-1" d="M0,0.310731429 L56.68536,0.310731429 L56.68536,57 L0,57"></path>
    </defs>
    <g id="following" stroke="none" stroke-width="1" fill="none" fill-rule="evenodd">
        <g id="[1-2]following" transform="translate(-203.000000, -1916.000000)">
            <g id="Footer" transform="translate(0.000000, 1844.000000)">
                <g id="FilmarksIcon" transform="translate(203.000000, 72.000000)">
                    <g id="Group-3">
                        <mask id="mask-2" fill="white">
                            <use xlink:href="#path-1"></use>
                        </mask>
                        <g id="Clip-2"></g>
                        <path d="M9.94666286,0.310698857 L46.74,0.310698857 C52.2357771,0.310698857 56.68536,4.76288743 56.68536,10.2599674 L56.68536,47.0506989 C56.68536,52.5477789 52.2357771,56.9999674 46.74,56.9999674 L9.94666286,56.9999674 C4.45218857,56.9999674 0,52.5477789 0,47.0506989 L0,10.2599674 C0,4.76288743 4.45218857,0.310698857 9.94666286,0.310698857" id="Fill-1" fill="#000000" mask="url(#mask-2)"></path>
                    </g>
                    <path d="M17.8878051,14.6984109 L19.528428,11.7243137 L14.3873537,9.30914229 L15.1241194,15.2289994 L17.8878051,14.6984109 Z" id="Fill-4" fill="#FFE100"></path>
                    <path d="M28.3352211,10.6562314 L30.705444,9.54294 L28.3430383,5.25816857 L25.9773754,9.54880286 L28.3352211,10.6562314 Z" id="Fill-6" fill="#FFE100"></path>
                    <path d="M45.5391566,20.631036 L45.2508994,22.9374189 L47.4888823,25.3265331 L50.9202823,21.6625731 L45.5391566,20.631036 Z" id="Fill-8" fill="#FFE100"></path>
                    <path d="M11.4183377,22.9373211 L11.130732,20.633544 L5.75807486,21.6628011 L9.18621771,25.3202469 L11.4183377,22.9373211 Z" id="Fill-10" fill="#FFE100"></path>
                    <path d="M38.8035154,14.6984109 L41.5518926,15.226068 L42.2922411,9.30914229 L37.1609383,11.7177994 L38.8035154,14.6984109 Z" id="Fill-12" fill="#FFE100"></path>
                    <path d="M45.2622343,34.576656 L45.5485371,36.8814103 L50.9202171,35.8515017 L47.4937029,32.1937303 L45.2622343,34.576656 Z" id="Fill-14" fill="#FFE100"></path>
                    <path d="M11.4295749,34.576656 L9.18996343,32.1868903 L5.75823771,35.8515017 L11.140992,36.8836903 L11.4295749,34.576656 Z" id="Fill-16" fill="#FFE100"></path>
                    <path d="M38.7917897,42.8167714 L37.1514926,45.7911943 L42.2922411,48.2063657 L41.5544983,42.2852057 L38.7917897,42.8167714 Z" id="Fill-18" fill="#FFE100"></path>
                    <path d="M28.3452206,46.8570291 L25.972392,47.9706463 L28.3351234,52.2576977 L30.7030663,47.9647834 L28.3452206,46.8570291 Z" id="Fill-20" fill="#FFE100"></path>
                    <path d="M17.8778709,42.8167714 L15.1278651,42.2878114 L14.3875166,48.2063657 L19.520448,45.7964057 L17.8778709,42.8167714 Z" id="Fill-22" fill="#FFE100"></path>
                    <path d="M49.6874537,28.759464 L44.4669051,23.1923554 L45.2789109,16.7008697 L38.3196994,15.3647897 L34.5645394,8.55540686 L28.3352537,11.4812983 L22.1225794,8.56224686 L18.3719794,15.3647897 L11.3925737,16.7038011 L12.2009966,23.1923554 L6.99217371,28.7519726 L12.2120709,34.3210354 L11.4010423,40.8128469 L18.3612309,42.1495783 L22.1163909,48.9576583 L28.3453509,46.0324183 L34.5580251,48.9527726 L38.3079737,42.1495783 L45.2870537,40.8102411 L44.4805851,34.3210354 L49.6874537,28.759464 Z" id="Fill-24" fill="#FFE100"></path>
                    <path d="M24.1855886,23.2972029 C23.5468629,23.2972029 23.0270229,22.77606 23.0270229,22.1357057 C23.0270229,21.4947 23.5468629,20.9729057 24.1855886,20.9729057 C24.8265943,20.9729057 25.3480629,21.4947 25.3480629,22.1357057 L25.3480629,23.2972029 L24.1855886,23.2972029 Z M36.0021771,21.4119686 C35.6025257,21.4119686 35.27844,21.7357286 35.27844,22.1357057 C35.27844,22.77606 34.7589257,23.2972029 34.1198743,23.2972029 L26.7958629,23.2972029 L26.7958629,22.1357057 C26.7958629,20.6963743 25.62492,19.5254314 24.1855886,19.5254314 C22.7485371,19.5254314 21.5792229,20.6963743 21.5792229,22.1357057 C21.5792229,23.5743857 22.7485371,24.7446771 24.1855886,24.7446771 L25.3480629,24.7446771 L25.3480629,28.7688771 L24.1855886,28.7688771 C23.7859371,28.7688771 23.4618514,29.0926371 23.4618514,29.4922886 C23.4618514,29.8922657 23.7859371,30.2163514 24.1855886,30.2163514 L25.3480629,30.2163514 L25.3480629,34.23306 C25.3480629,34.8704829 24.8265943,35.38902 24.1855886,35.38902 C23.7859371,35.38902 23.4618514,35.71278 23.4618514,36.1127571 C23.4618514,36.5124086 23.7859371,36.8364943 24.1855886,36.8364943 C25.62492,36.8364943 26.7958629,35.6688086 26.7958629,34.23306 L26.7958629,30.2163514 L32.9912743,30.2163514 C33.3912514,30.2163514 33.7150114,29.8922657 33.7150114,29.4922886 C33.7150114,29.0926371 33.3912514,28.7688771 32.9912743,28.7688771 L26.7958629,28.7688771 L26.7958629,24.7446771 L34.1198743,24.7446771 C35.5569257,24.7446771 36.7259143,23.5743857 36.7259143,22.1357057 C36.7259143,21.7357286 36.4021543,21.4119686 36.0021771,21.4119686 L36.0021771,21.4119686 Z" id="Fill-26" fill="#000000"></path>
                </g>
            </g>
        </g>
    </g>
</svg>