<?xml version="1.0" encoding="UTF-8" standalone="no"?>
<svg width="90px" height="126px" viewBox="0 0 90 126" version="1.1" xmlns="http://www.w3.org/2000/svg" xmlns:xlink="http://www.w3.org/1999/xlink">
    <!-- Generator: Sketch 3.6.1 (26313) - http://www.bohemiancoding.com/sketch -->
    <title>Group 3 Copy 2</title>
    <desc>Created with Sketch.</desc>
    <defs>
        <rect id="path-1" x="0" y="0" width="90" height="126"></rect>
    </defs>
    <g id="[4]ユーザー詳細" stroke="none" stroke-width="1" fill="none" fill-rule="evenodd">
        <g id="[4-4]ユーザー詳細-follower一覧" transform="translate(-393.000000, -591.000000)">
            <g id="user_cell" transform="translate(183.000000, 460.000000)">
                <g id="Group-3-Copy-2" transform="translate(210.000000, 131.000000)">
                    <mask id="mask-2" fill="white">
                        <use xlink:href="#path-1"></use>
                    </mask>
                    <use id="Mask" fill="#CCCCCC" xlink:href="#path-1"></use>
                    <path d="M41.9745455,85.1538974 L44.6596364,89.9870897 L47.3514805,85.1471026 L44.6711169,83.8982051 L41.9745455,85.1538974 Z M56.5446753,79.3436026 L54.6801039,82.6968718 L60.523013,85.4195769 L59.6842597,78.7442949 L56.5446753,79.3436026 Z M39.9438442,54.7169487 C39.2178701,54.7169487 38.626961,55.3047051 38.626961,56.0276795 C38.626961,56.7499744 39.2178701,57.3370513 39.9438442,57.3370513 L41.2647792,57.3370513 L41.2647792,56.0276795 C41.2647792,55.3047051 40.6725195,54.7169487 39.9438442,54.7169487 L39.9438442,54.7169487 Z M29.6491948,78.7470128 L28.8077403,85.4195769 L34.6411948,82.7029872 L32.7745974,79.3436026 L29.6491948,78.7470128 Z M51.2345974,58.9691795 L42.9105455,58.9691795 L42.9105455,63.5054359 L49.9521558,63.5054359 C50.405974,63.5054359 50.7747013,63.871 50.7747013,64.3215 C50.7747013,64.772 50.405974,65.1375641 49.9521558,65.1375641 L42.9105455,65.1375641 L42.9105455,69.6663462 C42.9105455,71.2848846 41.5794805,72.6010513 39.9438442,72.6010513 C39.4893506,72.6010513 39.1206234,72.2361667 39.1206234,71.7849872 C39.1206234,71.3344872 39.4893506,70.9696026 39.9438442,70.9696026 C40.6725195,70.9696026 41.2647792,70.3845641 41.2647792,69.6663462 L41.2647792,65.1375641 L39.9438442,65.1375641 C39.4893506,65.1375641 39.1206234,64.772 39.1206234,64.3215 C39.1206234,63.871 39.4893506,63.5054359 39.9438442,63.5054359 L41.2647792,63.5054359 L41.2647792,58.9691795 L39.9438442,58.9691795 C38.3102338,58.9691795 36.9818701,57.6496154 36.9818701,56.0276795 C36.9818701,54.4050641 38.3102338,53.0848205 39.9438442,53.0848205 C41.5794805,53.0848205 42.9105455,54.4050641 42.9105455,56.0276795 L42.9105455,57.3370513 L51.2345974,57.3370513 C51.9605714,57.3370513 52.5514805,56.7499744 52.5514805,56.0276795 C52.5514805,55.5771795 52.9195325,55.2116154 53.374026,55.2116154 C53.8285195,55.2116154 54.1965714,55.5771795 54.1965714,56.0276795 C54.1965714,57.6496154 52.8682078,58.9691795 51.2345974,58.9691795 L51.2345974,58.9691795 Z M68.9281039,63.4952436 L62.9947013,57.2188205 L63.9171948,49.9000641 L56.0077922,48.3943205 L51.7404156,40.7174744 L44.6596364,44.0157051 L37.5991169,40.7249487 L33.3357922,48.3943205 L25.4034286,49.904141 L26.3225455,57.2188205 L20.401974,63.4864103 L26.3353766,69.7655513 L25.4135584,77.0843077 L33.3236364,78.5914103 L37.5916883,86.2668974 L44.6711169,82.9686667 L51.7323117,86.2614615 L55.994961,78.5914103 L63.9266494,77.0809103 L63.0102338,69.7655513 L68.9281039,63.4952436 Z M63.8982857,70.0536538 L64.2237922,72.6520128 L70.3294026,71.4907692 L66.4348052,67.3669615 L63.8982857,70.0536538 Z M59.6815584,48.2380385 L60.523013,41.5668333 L54.6909091,44.2827436 L56.5575065,47.6428077 L59.6815584,48.2380385 Z M66.4294026,59.6248846 L70.3294026,55.4942821 L64.212987,54.331 L63.8854545,56.9313974 L66.4294026,59.6248846 Z M25.4331429,56.9313974 L25.1062857,54.3337179 L19,55.4942821 L22.8959481,59.6174103 L25.4331429,56.9313974 Z M22.9,67.3594872 L19,71.4907692 L25.1177662,72.6547308 L25.445974,70.0536538 L22.9,67.3594872 Z M47.3541818,41.8304744 L44.6690909,37 L41.9799481,41.8372692 L44.6596364,43.0854872 L47.3541818,41.8304744 Z M32.7860779,47.6428077 L34.6506494,44.2895385 L28.8077403,41.5668333 L29.6451429,48.2407564 L32.7860779,47.6428077 Z" id="Fill-1" fill="#E6E6E6" mask="url(#mask-2)"></path>
                </g>
            </g>
        </g>
    </g>
</svg>